<?xml version="1.0" encoding="UTF-8"?>
<svg width="2100px" height="2100px" viewBox="0 0 2100 2100" version="1.1" xmlns="http://www.w3.org/2000/svg" xmlns:xlink="http://www.w3.org/1999/xlink">
    <title>Rectangle</title>
    <g id="Website2" stroke="none" stroke-width="1" fill="none" fill-rule="evenodd">
        <path d="M1500,0 L1500,49.999 L50,50 L50,750 L900,750 L900,1350 L50,1350 L50,2050 L1799.999,2050 L1800,0 L2100,0 L2100,2100 L0,2100 L0,0 L1500,0 Z M1406,1459 L1408.48052,1459.0201 C1490.17914,1460.34471 1556,1526.98571 1556,1609 L1556,1759 L1555.9803,1761.45577 C1554.682,1842.34057 1489.36216,1907.66853 1408.48052,1908.9799 L1406,1909 L1406,1459 Z M864.127809,1558.37536 L865.639137,1560.34241 C914.894015,1625.53732 902.903556,1718.43316 838.275417,1768.9262 L720.073804,1861.27542 L718.126507,1862.77182 C653.589091,1911.5464 561.895049,1900.29357 511.065969,1837.36533 L509.52297,1835.42303 L864.127809,1558.37536 Z M636.443805,1790.1916 C634.189726,1790.17653 631.829765,1790.53982 629.363922,1791.28193 C626.898079,1792.02404 624.430607,1793.35963 621.961507,1795.2887 C619.177202,1797.46404 616.987208,1800.02106 615.391523,1802.95977 C613.795839,1805.89848 612.82319,1808.98493 612.473576,1812.21912 C612.123961,1815.45331 612.442528,1818.75767 613.429274,1822.1322 C614.416021,1825.50673 616.079151,1828.69122 618.418665,1831.68566 C620.840267,1834.78517 623.555722,1837.23209 626.565029,1839.02642 C629.574337,1840.82075 632.677208,1841.94977 635.873642,1842.41348 C639.070076,1842.8772 642.253362,1842.67438 645.423499,1841.80502 C648.593636,1840.93566 651.54459,1839.43383 654.276361,1837.29954 C656.009984,1835.94508 657.572043,1834.34396 658.962537,1832.49618 C660.353031,1830.64839 661.449242,1828.58637 662.251171,1826.31011 C663.053099,1824.03386 663.502466,1821.63119 663.599272,1819.10212 C663.696077,1816.57306 663.297081,1813.92374 662.402284,1811.15419 L650.961201,1813.24024 C651.261658,1814.27452 651.537492,1815.41263 651.788702,1816.65458 C652.039912,1817.89654 652.10561,1819.19883 651.985795,1820.56146 C651.865979,1821.92409 651.462557,1823.27564 650.775528,1824.61612 C650.088499,1825.95659 649.009508,1827.20145 647.538554,1828.35068 C645.962533,1829.58201 644.334377,1830.3676 642.654087,1830.70748 C640.973796,1831.04735 639.269282,1831.00429 637.540544,1830.57831 C635.811807,1830.15232 634.13929,1829.36515 632.522993,1828.21681 C630.906697,1827.06846 629.400799,1825.60121 628.0053,1823.81505 C624.926993,1819.875 623.51257,1816.1155 623.762032,1812.53655 C624.011494,1808.9576 625.50211,1806.10097 628.23388,1803.96668 C629.599766,1802.89954 630.969353,1802.18905 632.342642,1801.83523 C633.71593,1801.48141 635.0371,1801.35866 636.30615,1801.46699 C637.5752,1801.57531 638.740825,1801.84904 639.803026,1802.28818 C640.865227,1802.72732 641.721393,1803.20052 642.371524,1803.7078 L647.724932,1793.18017 C646.296621,1792.43486 644.622876,1791.7544 642.703694,1791.1388 C640.784513,1790.5232 638.697883,1790.20763 636.443805,1790.1916 Z M1489.73976,1773.33976 L1484.33976,1783.63976 C1485.33976,1784.03976 1486.40643,1784.5231 1487.53976,1785.08976 C1488.6731,1785.65643 1489.73976,1786.40643 1490.73976,1787.33976 C1491.73976,1788.2731 1492.55643,1789.4231 1493.18976,1790.78976 C1493.8231,1792.15643 1494.13976,1793.7731 1494.13976,1795.63976 C1494.13976,1797.63976 1493.75643,1799.40643 1492.98976,1800.93976 C1492.2231,1802.4731 1491.13976,1803.78976 1489.73976,1804.88976 C1488.33976,1805.98976 1486.68976,1806.8231 1484.78976,1807.38976 C1482.88976,1807.95643 1480.80643,1808.23976 1478.53976,1808.23976 C1473.53976,1808.23976 1469.70643,1807.03976 1467.03976,1804.63976 C1464.3731,1802.23976 1463.03976,1799.30643 1463.03976,1795.83976 C1463.03976,1794.10643 1463.3231,1792.58976 1463.88976,1791.28976 C1464.45643,1789.98976 1465.1731,1788.8731 1466.03976,1787.93976 C1466.90643,1787.00643 1467.83976,1786.25643 1468.83976,1785.68976 C1469.83976,1785.1231 1470.73976,1784.73976 1471.53976,1784.53976 L1466.53976,1773.83976 C1465.0731,1774.50643 1463.50643,1775.40643 1461.83976,1776.53976 C1460.1731,1777.6731 1458.63976,1779.1231 1457.23976,1780.88976 C1455.83976,1782.65643 1454.6731,1784.73976 1453.73976,1787.13976 C1452.80643,1789.53976 1452.33976,1792.30643 1452.33976,1795.43976 C1452.33976,1798.9731 1453.00643,1802.2731 1454.33976,1805.33976 C1455.6731,1808.40643 1457.50643,1811.0731 1459.83976,1813.33976 C1462.1731,1815.60643 1464.9731,1817.38976 1468.23976,1818.68976 C1471.50643,1819.98976 1475.03976,1820.63976 1478.83976,1820.63976 C1482.7731,1820.63976 1486.3731,1820.00643 1489.63976,1818.73976 C1492.90643,1817.4731 1495.70643,1815.7231 1498.03976,1813.48976 C1500.3731,1811.25643 1502.1731,1808.6231 1503.43976,1805.58976 C1504.70643,1802.55643 1505.33976,1799.30643 1505.33976,1795.83976 C1505.33976,1793.63976 1505.03976,1791.4231 1504.43976,1789.18976 C1503.83976,1786.95643 1502.88976,1784.8231 1501.58976,1782.78976 C1500.28976,1780.75643 1498.6731,1778.9231 1496.73976,1777.28976 C1494.80643,1775.65643 1492.4731,1774.33976 1489.73976,1773.33976 Z M681.046502,1757.94612 C677.806566,1757.6433 674.582651,1757.98361 671.374757,1758.96707 C668.166863,1759.95053 665.19703,1761.50941 662.46526,1763.6437 C659.523353,1765.94217 657.218029,1768.56815 655.549289,1771.52164 C653.880548,1774.47512 652.884505,1777.5587 652.561157,1780.77237 C652.23781,1783.98604 652.572382,1787.25674 653.564874,1790.58448 C654.557366,1793.91222 656.223369,1797.07331 658.562882,1800.06775 C660.902396,1803.06219 663.563673,1805.46684 666.546714,1807.28169 C669.529755,1809.09655 672.666281,1810.24157 675.956293,1810.71678 C679.246306,1811.19198 682.549436,1810.98013 685.865686,1810.08121 C689.181935,1809.1823 692.389814,1807.52204 695.489323,1805.10044 C698.483764,1802.76093 700.79196,1800.11156 702.413912,1797.15232 C704.035863,1794.19309 705.008512,1791.10664 705.33186,1787.89297 C705.655207,1784.6793 705.29724,1781.40573 704.257959,1778.07224 C703.218678,1774.73876 701.488237,1771.52226 699.066635,1768.42275 C696.521901,1765.16564 693.692346,1762.68097 690.57797,1760.96872 C687.463594,1759.25648 684.286438,1758.24895 681.046502,1757.94612 Z M674.187257,1769.71369 C675.993137,1769.318 677.77358,1769.32289 679.528585,1769.72835 C681.283589,1770.13382 682.972113,1770.88733 684.594154,1771.98888 C686.216195,1773.09044 687.689666,1774.43497 689.014567,1776.02249 C690.339468,1777.61 691.400056,1779.31941 692.196329,1781.15073 C692.992603,1782.98205 693.421952,1784.80393 693.484377,1786.61639 C693.546803,1788.42884 693.20126,1790.17933 692.447749,1791.86786 C691.694238,1793.55638 690.450671,1795.07787 688.717047,1796.43232 C687.298628,1797.54051 685.730394,1798.3216 684.012347,1798.77557 C682.2943,1799.22954 680.528634,1799.29771 678.71535,1798.98008 C676.902066,1798.66245 675.101087,1797.9545 673.312411,1796.85623 C671.523736,1795.75796 669.829038,1794.18441 668.228318,1792.13558 C666.832819,1790.34942 665.799728,1788.51277 665.129044,1786.62564 C664.458361,1784.7385 664.182512,1782.92358 664.301498,1781.1809 C664.420484,1779.43821 664.87151,1777.79566 665.654575,1776.25325 C666.43764,1774.71084 667.564649,1773.36502 669.035603,1772.21578 C670.664158,1770.94342 672.381376,1770.10939 674.187257,1769.71369 Z M727.217623,1714.95714 L717.761494,1722.34508 L730.813517,1739.0509 C731.880664,1740.41679 732.798411,1741.6456 733.566759,1742.73732 C734.335107,1743.82905 734.984838,1744.82309 735.515954,1745.71946 C736.047069,1746.61582 736.487479,1747.4773 736.837183,1748.3039 C737.186887,1749.1305 737.424135,1750.00266 737.548926,1750.92037 C737.739399,1752.46358 737.555974,1754.15086 736.998652,1755.98221 C736.441329,1757.81356 735.164521,1759.50907 733.168227,1761.06875 C731.434603,1762.4232 729.603285,1763.21947 727.674272,1763.45757 C725.74526,1763.69566 723.840856,1763.15311 721.96106,1761.82993 C721.393017,1761.42772 720.839336,1760.90854 720.300018,1760.27239 C719.760699,1759.63623 719.18321,1758.92415 718.567548,1758.13614 L700.898064,1735.52023 L691.363134,1742.96974 L709.15575,1765.74325 C710.304985,1767.2142 711.375004,1768.55669 712.365807,1769.77072 C713.356611,1770.98475 714.330993,1772.0424 715.288956,1772.94368 C716.246918,1773.84497 717.268904,1774.61163 718.354914,1775.24366 C719.440924,1775.8757 720.653753,1776.3452 721.993401,1776.65218 C722.730536,1776.83767 723.593262,1776.96735 724.581577,1777.04121 C725.569893,1777.11506 726.671894,1777.03664 727.887581,1776.80596 C729.103267,1776.57527 730.438385,1776.14552 731.892932,1775.51671 C733.34748,1774.8879 734.889032,1773.93731 736.517587,1772.66494 C738.303745,1771.26944 739.762379,1769.83373 740.89349,1768.3578 C742.0246,1766.88187 742.897142,1765.48106 743.511115,1764.15536 C744.125088,1762.82966 744.571198,1761.61395 744.849445,1760.50825 C745.127691,1759.40255 745.312775,1758.47538 745.404694,1757.72676 L748.544568,1761.74561 L758.000697,1754.35768 L727.217623,1714.95714 Z M1478.63976,1718.13976 C1474.50643,1718.13976 1470.80643,1718.83976 1467.53976,1720.23976 C1464.2731,1721.63976 1461.5231,1723.5231 1459.28976,1725.88976 C1457.05643,1728.25643 1455.33976,1731.00643 1454.13976,1734.13976 C1452.93976,1737.2731 1452.33976,1740.5731 1452.33976,1744.03976 C1452.33976,1747.7731 1452.98976,1751.20643 1454.28976,1754.33976 C1455.58976,1757.4731 1457.40643,1760.15643 1459.73976,1762.38976 C1462.0731,1764.6231 1464.85643,1766.3731 1468.08976,1767.63976 C1471.3231,1768.90643 1474.83976,1769.53976 1478.63976,1769.53976 C1482.43976,1769.53976 1485.9731,1768.9231 1489.23976,1767.68976 C1492.50643,1766.45643 1495.33976,1764.68976 1497.73976,1762.38976 C1500.13976,1760.08976 1502.00643,1757.35643 1503.33976,1754.18976 C1504.6731,1751.0231 1505.33976,1747.4731 1505.33976,1743.53976 C1505.33976,1739.73976 1504.6731,1736.28976 1503.33976,1733.18976 C1502.00643,1730.08976 1500.1731,1727.4231 1497.83976,1725.18976 C1495.50643,1722.95643 1492.70643,1721.2231 1489.43976,1719.98976 C1486.1731,1718.75643 1482.5731,1718.13976 1478.63976,1718.13976 Z M1478.43976,1730.73976 C1480.50643,1730.6731 1482.50643,1730.88976 1484.43976,1731.38976 C1486.3731,1731.88976 1488.0731,1732.6731 1489.53976,1733.73976 C1491.00643,1734.80643 1492.1731,1736.15643 1493.03976,1737.78976 C1493.90643,1739.4231 1494.33976,1741.33976 1494.33976,1743.53976 C1494.33976,1745.33976 1493.98976,1747.05643 1493.28976,1748.68976 C1492.58976,1750.3231 1491.55643,1751.75643 1490.18976,1752.98976 C1488.8231,1754.2231 1487.15643,1755.20643 1485.18976,1755.93976 C1483.2231,1756.6731 1480.93976,1757.03976 1478.33976,1757.03976 C1476.0731,1757.03976 1473.98976,1756.7231 1472.08976,1756.08976 C1470.18976,1755.45643 1468.58976,1754.55643 1467.28976,1753.38976 C1465.98976,1752.2231 1464.9731,1750.85643 1464.23976,1749.28976 C1463.50643,1747.7231 1463.13976,1746.00643 1463.13976,1744.13976 C1463.13976,1742.0731 1463.53976,1740.20643 1464.33976,1738.53976 C1465.13976,1736.8731 1466.23976,1735.4731 1467.63976,1734.33976 C1469.03976,1733.20643 1470.6731,1732.33976 1472.53976,1731.73976 C1474.40643,1731.13976 1476.3731,1730.80643 1478.43976,1730.73976 Z M767.726396,1687.6224 C765.472318,1687.60733 763.112357,1687.97061 760.646514,1688.71273 C758.180671,1689.45484 755.713199,1690.79043 753.244098,1692.7195 C750.459794,1694.89484 748.269799,1697.45186 746.674115,1700.39057 C745.078431,1703.32928 744.105781,1706.41573 743.756167,1709.64992 C743.406553,1712.88411 743.725119,1716.18847 744.711866,1719.563 C745.698613,1722.93753 747.361743,1726.12201 749.701257,1729.11645 C752.122858,1732.21596 754.838313,1734.66288 757.847621,1736.45721 C760.856929,1738.25154 763.9598,1739.38057 767.156234,1739.84428 C770.352668,1740.308 773.535954,1740.10517 776.706091,1739.23581 C779.876228,1738.36645 782.827182,1736.86463 785.558952,1734.73033 C787.292576,1733.37588 788.854635,1731.77476 790.245129,1729.92698 C791.635622,1728.07919 792.731834,1726.01717 793.533762,1723.74091 C794.335691,1721.46465 794.785058,1719.06199 794.881863,1716.53292 C794.978669,1714.00385 794.579673,1711.35454 793.684875,1708.58498 L782.243793,1710.67104 C782.54425,1711.70531 782.820083,1712.84343 783.071294,1714.08538 C783.322504,1715.32734 783.388201,1716.62963 783.268386,1717.99226 C783.148571,1719.35488 782.745149,1720.70644 782.05812,1722.04691 C781.371091,1723.38739 780.292099,1724.63225 778.821146,1725.78148 C777.245124,1727.01281 775.616969,1727.7984 773.936678,1728.13828 C772.256388,1728.47815 770.551874,1728.43509 768.823136,1728.0091 C767.094398,1727.58312 765.421881,1726.79595 763.805585,1725.6476 C762.189289,1724.49926 760.683391,1723.03201 759.287891,1721.24585 C756.209584,1717.3058 754.795161,1713.54629 755.044623,1709.96734 C755.294085,1706.38839 756.784701,1703.53177 759.516472,1701.39748 C760.882357,1700.33033 762.251944,1699.61985 763.625233,1699.26603 C764.998522,1698.91221 766.319691,1698.78946 767.588741,1698.89779 C768.857791,1699.00611 770.023417,1699.27984 771.085618,1699.71898 C772.147819,1700.15811 773.003985,1700.63132 773.654116,1701.1386 L779.007524,1690.61097 C777.579213,1689.86566 775.905467,1689.1852 773.986286,1688.5696 C772.067104,1687.954 769.980475,1687.63843 767.726396,1687.6224 Z M773.478201,1652.67264 L764.022072,1660.06058 L807.487772,1715.69414 L816.943901,1708.3062 L802.783687,1690.18195 C801.921761,1689.07874 801.224011,1688.18566 800.690438,1687.50271 C800.156865,1686.81977 799.739035,1686.2579 799.43695,1685.81711 C799.134864,1685.37631 798.884083,1685.00119 798.684608,1684.69173 C798.485132,1684.38227 798.314796,1684.02889 798.1736,1683.6316 C797.879717,1682.93059 797.637953,1681.99851 797.448309,1680.83536 C797.258665,1679.67221 797.247145,1678.41219 797.413749,1677.05531 C797.580354,1675.69842 798.023176,1674.31609 798.742217,1672.9083 C799.461259,1671.50051 800.582523,1670.20148 802.10601,1669.0112 C803.419362,1667.9851 804.639964,1667.32756 805.767817,1667.03859 C806.895671,1666.74963 807.904094,1666.65972 808.793086,1666.76888 C809.682079,1666.87803 810.429475,1667.07666 811.035275,1667.36477 C811.641075,1667.65288 812.078598,1667.86095 812.347842,1667.989 C812.699175,1668.22212 813.027113,1668.45236 813.331656,1668.67973 C813.6362,1668.9071 813.955521,1669.20753 814.289619,1669.58102 C814.623716,1669.9545 815.029641,1670.41992 815.507393,1670.97727 C815.985145,1671.53462 816.599163,1672.23932 817.349447,1673.09135 L834.280138,1694.76165 L843.578665,1687.49684 L824.554725,1663.14731 C822.789829,1660.88834 820.983074,1658.87359 819.134461,1657.10303 C817.285848,1655.33248 814.870036,1654.21658 811.887025,1653.75532 C809.89233,1653.36792 807.657545,1653.48535 805.18267,1654.10762 C802.707794,1654.72989 800.235806,1656.00555 797.766706,1657.93463 C795.034935,1660.06892 793.024294,1662.42237 791.734782,1664.99497 C790.44527,1667.56757 789.633909,1670.21075 789.300701,1672.92452 L773.478201,1652.67264 Z M1503.83976,1663.03976 L1453.83976,1663.03976 L1453.83976,1675.03976 L1475.03976,1675.03976 C1476.7731,1675.03976 1478.30643,1675.0731 1479.63976,1675.13976 C1480.9731,1675.20643 1482.15643,1675.30643 1483.18976,1675.43976 C1484.2231,1675.5731 1485.1731,1675.75643 1486.03976,1675.98976 C1486.90643,1676.2231 1487.73976,1676.5731 1488.53976,1677.03976 C1489.8731,1677.83976 1491.08976,1679.0231 1492.18976,1680.58976 C1493.28976,1682.15643 1493.83976,1684.20643 1493.83976,1686.73976 C1493.83976,1688.93976 1493.33976,1690.8731 1492.33976,1692.53976 C1491.33976,1694.20643 1489.73976,1695.3731 1487.53976,1696.03976 C1486.8731,1696.23976 1486.1231,1696.35643 1485.28976,1696.38976 C1484.45643,1696.4231 1483.53976,1696.43976 1482.53976,1696.43976 L1453.83976,1696.43976 L1453.83976,1708.53976 L1482.73976,1708.53976 C1484.60643,1708.53976 1486.3231,1708.5231 1487.88976,1708.48976 C1489.45643,1708.45643 1490.88976,1708.33976 1492.18976,1708.13976 C1493.48976,1707.93976 1494.7231,1707.60643 1495.88976,1707.13976 C1497.05643,1706.6731 1498.1731,1706.00643 1499.23976,1705.13976 C1499.83976,1704.6731 1500.4731,1704.0731 1501.13976,1703.33976 C1501.80643,1702.60643 1502.4231,1701.68976 1502.98976,1700.58976 C1503.55643,1699.48976 1504.03976,1698.1731 1504.43976,1696.63976 C1504.83976,1695.10643 1505.03976,1693.30643 1505.03976,1691.23976 C1505.03976,1688.9731 1504.80643,1686.93976 1504.33976,1685.13976 C1503.8731,1683.33976 1503.30643,1681.78976 1502.63976,1680.48976 C1501.9731,1679.18976 1501.28976,1678.08976 1500.58976,1677.18976 C1499.88976,1676.28976 1499.2731,1675.5731 1498.73976,1675.03976 L1503.83976,1675.03976 L1503.83976,1663.03976 Z M1489.73976,1606.73976 L1484.33976,1617.03976 C1485.33976,1617.43976 1486.40643,1617.9231 1487.53976,1618.48976 C1488.6731,1619.05643 1489.73976,1619.80643 1490.73976,1620.73976 C1491.73976,1621.6731 1492.55643,1622.8231 1493.18976,1624.18976 C1493.8231,1625.55643 1494.13976,1627.1731 1494.13976,1629.03976 C1494.13976,1631.03976 1493.75643,1632.80643 1492.98976,1634.33976 C1492.2231,1635.8731 1491.13976,1637.18976 1489.73976,1638.28976 C1488.33976,1639.38976 1486.68976,1640.2231 1484.78976,1640.78976 C1482.88976,1641.35643 1480.80643,1641.63976 1478.53976,1641.63976 C1473.53976,1641.63976 1469.70643,1640.43976 1467.03976,1638.03976 C1464.3731,1635.63976 1463.03976,1632.70643 1463.03976,1629.23976 C1463.03976,1627.50643 1463.3231,1625.98976 1463.88976,1624.68976 C1464.45643,1623.38976 1465.1731,1622.2731 1466.03976,1621.33976 C1466.90643,1620.40643 1467.83976,1619.65643 1468.83976,1619.08976 C1469.83976,1618.5231 1470.73976,1618.13976 1471.53976,1617.93976 L1466.53976,1607.23976 C1465.0731,1607.90643 1463.50643,1608.80643 1461.83976,1609.93976 C1460.1731,1611.0731 1458.63976,1612.5231 1457.23976,1614.28976 C1455.83976,1616.05643 1454.6731,1618.13976 1453.73976,1620.53976 C1452.80643,1622.93976 1452.33976,1625.70643 1452.33976,1628.83976 C1452.33976,1632.3731 1453.00643,1635.6731 1454.33976,1638.73976 C1455.6731,1641.80643 1457.50643,1644.4731 1459.83976,1646.73976 C1462.1731,1649.00643 1464.9731,1650.78976 1468.23976,1652.08976 C1471.50643,1653.38976 1475.03976,1654.03976 1478.83976,1654.03976 C1482.7731,1654.03976 1486.3731,1653.40643 1489.63976,1652.13976 C1492.90643,1650.8731 1495.70643,1649.1231 1498.03976,1646.88976 C1500.3731,1644.65643 1502.1731,1642.0231 1503.43976,1638.98976 C1504.70643,1635.95643 1505.33976,1632.70643 1505.33976,1629.23976 C1505.33976,1627.03976 1505.03976,1624.8231 1504.43976,1622.58976 C1503.83976,1620.35643 1502.88976,1618.2231 1501.58976,1616.18976 C1500.28976,1614.15643 1498.6731,1612.3231 1496.73976,1610.68976 C1494.80643,1609.05643 1492.4731,1607.73976 1489.73976,1606.73976 Z M1503.83976,1554.43976 L1472.93976,1554.43976 C1470.0731,1554.43976 1467.3731,1554.6231 1464.83976,1554.98976 C1462.30643,1555.35643 1459.93976,1556.5731 1457.73976,1558.63976 C1456.20643,1559.9731 1454.9231,1561.80643 1453.88976,1564.13976 C1452.85643,1566.4731 1452.33976,1569.20643 1452.33976,1572.33976 C1452.33976,1575.80643 1452.95643,1578.83976 1454.18976,1581.43976 C1455.4231,1584.03976 1457.00643,1586.30643 1458.93976,1588.23976 L1433.23976,1588.23976 L1433.23976,1600.23976 L1503.83976,1600.23976 L1503.83976,1588.23976 L1477.43976,1588.23976 C1476.5731,1588.23976 1475.8731,1588.2231 1475.33976,1588.18976 C1474.80643,1588.15643 1474.35643,1588.1231 1473.98976,1588.08976 C1473.6231,1588.05643 1473.23976,1587.9731 1472.83976,1587.83976 C1472.10643,1587.63976 1471.2231,1587.25643 1470.18976,1586.68976 C1469.15643,1586.1231 1468.15643,1585.35643 1467.18976,1584.38976 C1466.2231,1583.4231 1465.40643,1582.2231 1464.73976,1580.78976 C1464.0731,1579.35643 1463.73976,1577.6731 1463.73976,1575.73976 C1463.73976,1574.0731 1463.9731,1572.70643 1464.43976,1571.63976 C1464.90643,1570.5731 1465.45643,1569.7231 1466.08976,1569.08976 C1466.7231,1568.45643 1467.33976,1567.98976 1467.93976,1567.68976 C1468.01476,1567.65226 1468.08716,1567.61607 1468.15695,1567.58117 L1468.71476,1567.30226 C1468.93143,1567.19393 1469.10643,1567.10643 1469.23976,1567.03976 C1469.63976,1566.90643 1470.0231,1566.78976 1470.38976,1566.68976 C1470.75643,1566.58976 1471.18976,1566.5231 1471.68976,1566.48976 C1472.18976,1566.45643 1472.80643,1566.4231 1473.53976,1566.38976 C1474.2731,1566.35643 1475.20643,1566.30643 1476.33976,1566.23976 L1503.83976,1566.23976 L1503.83976,1554.43976 Z M1115,1009 L1117.48052,1009.0201 C1199.17914,1010.34471 1265,1076.98571 1265,1159 L1265,1309 L1264.9803,1311.45577 C1263.682,1392.34057 1198.36216,1457.66853 1117.48052,1458.9799 L1115,1459 L1115,1009 Z M1197.73976,1316.33976 L1192.33976,1326.63976 C1193.33976,1327.03976 1194.40643,1327.5231 1195.53976,1328.08976 C1196.6731,1328.65643 1197.73976,1329.40643 1198.73976,1330.33976 C1199.73976,1331.2731 1200.55643,1332.4231 1201.18976,1333.78976 C1201.8231,1335.15643 1202.13976,1336.7731 1202.13976,1338.63976 C1202.13976,1340.63976 1201.75643,1342.40643 1200.98976,1343.93976 C1200.2231,1345.4731 1199.13976,1346.78976 1197.73976,1347.88976 C1196.33976,1348.98976 1194.68976,1349.8231 1192.78976,1350.38976 C1190.88976,1350.95643 1188.80643,1351.23976 1186.53976,1351.23976 C1181.53976,1351.23976 1177.70643,1350.03976 1175.03976,1347.63976 C1172.3731,1345.23976 1171.03976,1342.30643 1171.03976,1338.83976 C1171.03976,1337.10643 1171.3231,1335.58976 1171.88976,1334.28976 C1172.45643,1332.98976 1173.1731,1331.8731 1174.03976,1330.93976 C1174.90643,1330.00643 1175.83976,1329.25643 1176.83976,1328.68976 C1177.83976,1328.1231 1178.73976,1327.73976 1179.53976,1327.53976 L1174.53976,1316.83976 C1173.0731,1317.50643 1171.50643,1318.40643 1169.83976,1319.53976 C1168.1731,1320.6731 1166.63976,1322.1231 1165.23976,1323.88976 C1163.83976,1325.65643 1162.6731,1327.73976 1161.73976,1330.13976 C1160.80643,1332.53976 1160.33976,1335.30643 1160.33976,1338.43976 C1160.33976,1341.9731 1161.00643,1345.2731 1162.33976,1348.33976 C1163.6731,1351.40643 1165.50643,1354.0731 1167.83976,1356.33976 C1170.1731,1358.60643 1172.9731,1360.38976 1176.23976,1361.68976 C1179.50643,1362.98976 1183.03976,1363.63976 1186.83976,1363.63976 C1190.7731,1363.63976 1194.3731,1363.00643 1197.63976,1361.73976 C1200.90643,1360.4731 1203.70643,1358.7231 1206.03976,1356.48976 C1208.3731,1354.25643 1210.1731,1351.6231 1211.43976,1348.58976 C1212.70643,1345.55643 1213.33976,1342.30643 1213.33976,1338.83976 C1213.33976,1336.63976 1213.03976,1334.4231 1212.43976,1332.18976 C1211.83976,1329.95643 1210.88976,1327.8231 1209.58976,1325.78976 C1208.28976,1323.75643 1206.6731,1321.9231 1204.73976,1320.28976 C1202.80643,1318.65643 1200.4731,1317.33976 1197.73976,1316.33976 Z M1186.63976,1261.13976 C1182.50643,1261.13976 1178.80643,1261.83976 1175.53976,1263.23976 C1172.2731,1264.63976 1169.5231,1266.5231 1167.28976,1268.88976 C1165.05643,1271.25643 1163.33976,1274.00643 1162.13976,1277.13976 C1160.93976,1280.2731 1160.33976,1283.5731 1160.33976,1287.03976 C1160.33976,1290.7731 1160.98976,1294.20643 1162.28976,1297.33976 C1163.58976,1300.4731 1165.40643,1303.15643 1167.73976,1305.38976 C1170.0731,1307.6231 1172.85643,1309.3731 1176.08976,1310.63976 C1179.3231,1311.90643 1182.83976,1312.53976 1186.63976,1312.53976 C1190.43976,1312.53976 1193.9731,1311.9231 1197.23976,1310.68976 C1200.50643,1309.45643 1203.33976,1307.68976 1205.73976,1305.38976 C1208.13976,1303.08976 1210.00643,1300.35643 1211.33976,1297.18976 C1212.6731,1294.0231 1213.33976,1290.4731 1213.33976,1286.53976 C1213.33976,1282.73976 1212.6731,1279.28976 1211.33976,1276.18976 C1210.00643,1273.08976 1208.1731,1270.4231 1205.83976,1268.18976 C1203.50643,1265.95643 1200.70643,1264.2231 1197.43976,1262.98976 C1194.1731,1261.75643 1190.5731,1261.13976 1186.63976,1261.13976 Z M1186.43976,1273.73976 C1188.50643,1273.6731 1190.50643,1273.88976 1192.43976,1274.38976 C1194.3731,1274.88976 1196.0731,1275.6731 1197.53976,1276.73976 C1199.00643,1277.80643 1200.1731,1279.15643 1201.03976,1280.78976 C1201.90643,1282.4231 1202.33976,1284.33976 1202.33976,1286.53976 C1202.33976,1288.33976 1201.98976,1290.05643 1201.28976,1291.68976 C1200.58976,1293.3231 1199.55643,1294.75643 1198.18976,1295.98976 C1196.8231,1297.2231 1195.15643,1298.20643 1193.18976,1298.93976 C1191.2231,1299.6731 1188.93976,1300.03976 1186.33976,1300.03976 C1184.0731,1300.03976 1181.98976,1299.7231 1180.08976,1299.08976 C1178.18976,1298.45643 1176.58976,1297.55643 1175.28976,1296.38976 C1173.98976,1295.2231 1172.9731,1293.85643 1172.23976,1292.28976 C1171.50643,1290.7231 1171.13976,1289.00643 1171.13976,1287.13976 C1171.13976,1285.0731 1171.53976,1283.20643 1172.33976,1281.53976 C1173.13976,1279.8731 1174.23976,1278.4731 1175.63976,1277.33976 C1177.03976,1276.20643 1178.6731,1275.33976 1180.53976,1274.73976 C1182.40643,1274.13976 1184.3731,1273.80643 1186.43976,1273.73976 Z M1211.83976,1206.03976 L1161.83976,1206.03976 L1161.83976,1218.03976 L1183.03976,1218.03976 C1184.7731,1218.03976 1186.30643,1218.0731 1187.63976,1218.13976 C1188.9731,1218.20643 1190.15643,1218.30643 1191.18976,1218.43976 C1192.2231,1218.5731 1193.1731,1218.75643 1194.03976,1218.98976 C1194.90643,1219.2231 1195.73976,1219.5731 1196.53976,1220.03976 C1197.8731,1220.83976 1199.08976,1222.0231 1200.18976,1223.58976 C1201.28976,1225.15643 1201.83976,1227.20643 1201.83976,1229.73976 C1201.83976,1231.93976 1201.33976,1233.8731 1200.33976,1235.53976 C1199.33976,1237.20643 1197.73976,1238.3731 1195.53976,1239.03976 C1194.8731,1239.23976 1194.1231,1239.35643 1193.28976,1239.38976 C1192.45643,1239.4231 1191.53976,1239.43976 1190.53976,1239.43976 L1161.83976,1239.43976 L1161.83976,1251.53976 L1190.73976,1251.53976 C1192.60643,1251.53976 1194.3231,1251.5231 1195.88976,1251.48976 C1197.45643,1251.45643 1198.88976,1251.33976 1200.18976,1251.13976 C1201.48976,1250.93976 1202.7231,1250.60643 1203.88976,1250.13976 C1205.05643,1249.6731 1206.1731,1249.00643 1207.23976,1248.13976 C1207.83976,1247.6731 1208.4731,1247.0731 1209.13976,1246.33976 C1209.80643,1245.60643 1210.4231,1244.68976 1210.98976,1243.58976 C1211.55643,1242.48976 1212.03976,1241.1731 1212.43976,1239.63976 C1212.83976,1238.10643 1213.03976,1236.30643 1213.03976,1234.23976 C1213.03976,1231.9731 1212.80643,1229.93976 1212.33976,1228.13976 C1211.8731,1226.33976 1211.30643,1224.78976 1210.63976,1223.48976 C1209.9731,1222.18976 1209.28976,1221.08976 1208.58976,1220.18976 C1207.88976,1219.28976 1207.2731,1218.5731 1206.73976,1218.03976 L1211.83976,1218.03976 L1211.83976,1206.03976 Z M1197.73976,1149.73976 L1192.33976,1160.03976 C1193.33976,1160.43976 1194.40643,1160.9231 1195.53976,1161.48976 C1196.6731,1162.05643 1197.73976,1162.80643 1198.73976,1163.73976 C1199.73976,1164.6731 1200.55643,1165.8231 1201.18976,1167.18976 C1201.8231,1168.55643 1202.13976,1170.1731 1202.13976,1172.03976 C1202.13976,1174.03976 1201.75643,1175.80643 1200.98976,1177.33976 C1200.2231,1178.8731 1199.13976,1180.18976 1197.73976,1181.28976 C1196.33976,1182.38976 1194.68976,1183.2231 1192.78976,1183.78976 C1190.88976,1184.35643 1188.80643,1184.63976 1186.53976,1184.63976 C1181.53976,1184.63976 1177.70643,1183.43976 1175.03976,1181.03976 C1172.3731,1178.63976 1171.03976,1175.70643 1171.03976,1172.23976 C1171.03976,1170.50643 1171.3231,1168.98976 1171.88976,1167.68976 C1172.45643,1166.38976 1173.1731,1165.2731 1174.03976,1164.33976 C1174.90643,1163.40643 1175.83976,1162.65643 1176.83976,1162.08976 C1177.83976,1161.5231 1178.73976,1161.13976 1179.53976,1160.93976 L1174.53976,1150.23976 C1173.0731,1150.90643 1171.50643,1151.80643 1169.83976,1152.93976 C1168.1731,1154.0731 1166.63976,1155.5231 1165.23976,1157.28976 C1163.83976,1159.05643 1162.6731,1161.13976 1161.73976,1163.53976 C1160.80643,1165.93976 1160.33976,1168.70643 1160.33976,1171.83976 C1160.33976,1175.3731 1161.00643,1178.6731 1162.33976,1181.73976 C1163.6731,1184.80643 1165.50643,1187.4731 1167.83976,1189.73976 C1170.1731,1192.00643 1172.9731,1193.78976 1176.23976,1195.08976 C1179.50643,1196.38976 1183.03976,1197.03976 1186.83976,1197.03976 C1190.7731,1197.03976 1194.3731,1196.40643 1197.63976,1195.13976 C1200.90643,1193.8731 1203.70643,1192.1231 1206.03976,1189.88976 C1208.3731,1187.65643 1210.1731,1185.0231 1211.43976,1181.98976 C1212.70643,1178.95643 1213.33976,1175.70643 1213.33976,1172.23976 C1213.33976,1170.03976 1213.03976,1167.8231 1212.43976,1165.58976 C1211.83976,1163.35643 1210.88976,1161.2231 1209.58976,1159.18976 C1208.28976,1157.15643 1206.6731,1155.3231 1204.73976,1153.68976 C1202.80643,1152.05643 1200.4731,1150.73976 1197.73976,1149.73976 Z M462.239764,1115.33976 C460.106431,1115.33976 458.106431,1115.80643 456.239764,1116.73976 C454.373097,1117.6731 452.839764,1118.90643 451.639764,1120.43976 C451.039764,1121.23976 450.523097,1122.05643 450.089764,1122.88976 C449.656431,1123.7231 449.273097,1124.75643 448.939764,1125.98976 C448.606431,1127.2231 448.273097,1128.70643 447.939764,1130.43976 C447.606431,1132.1731 447.206431,1134.33976 446.739764,1136.93976 C446.206431,1140.13976 445.573097,1142.6231 444.839764,1144.38976 C444.106431,1146.15643 442.839764,1147.03976 441.039764,1147.03976 C439.706431,1147.03976 438.523097,1146.3731 437.489764,1145.03976 C436.456431,1143.70643 435.939764,1141.60643 435.939764,1138.73976 C435.939764,1136.53976 436.206431,1134.65643 436.739764,1133.08976 C437.273097,1131.5231 437.939764,1130.20643 438.739764,1129.13976 C439.539764,1128.0731 440.373097,1127.2231 441.239764,1126.58976 C442.106431,1125.95643 442.873097,1125.4731 443.539764,1125.13976 L435.639764,1116.63976 C435.039764,1117.1731 434.339764,1117.83976 433.539764,1118.63976 C432.739764,1119.43976 431.939764,1120.4731 431.139764,1121.73976 C429.939764,1123.4731 428.839764,1125.70643 427.839764,1128.43976 C426.839764,1131.1731 426.339764,1134.43976 426.339764,1138.23976 C426.339764,1141.63976 426.789764,1144.6731 427.689764,1147.33976 C428.589764,1150.00643 429.789764,1152.25643 431.289764,1154.08976 C432.789764,1155.9231 434.523097,1157.30643 436.489764,1158.23976 C438.456431,1159.1731 440.506431,1159.63976 442.639764,1159.63976 C443.773097,1159.63976 445.023097,1159.45643 446.389764,1159.08976 C447.756431,1158.7231 449.089764,1158.03976 450.389764,1157.03976 C451.689764,1156.03976 452.923097,1154.6231 454.089764,1152.78976 C455.256431,1150.95643 456.173097,1148.53976 456.839764,1145.53976 C456.973097,1145.0731 457.156431,1144.28976 457.389764,1143.18976 C457.623097,1142.08976 457.856431,1140.90643 458.089764,1139.63976 L458.229764,1138.88976 C458.416431,1137.9031 458.603097,1136.96976 458.789764,1136.08976 C458.886986,1135.63143 458.969741,1135.23386 459.038028,1134.89706 L459.113028,1134.52206 C459.169741,1134.23386 459.211986,1134.00643 459.239764,1133.83976 C459.306431,1133.43976 459.423097,1132.93976 459.589764,1132.33976 C459.756431,1131.73976 459.989764,1131.1731 460.289764,1130.63976 C460.589764,1130.10643 461.006431,1129.63976 461.539764,1129.23976 C462.073097,1128.83976 462.739764,1128.63976 463.539764,1128.63976 C464.139764,1128.63976 464.789764,1128.83976 465.489764,1129.23976 C466.189764,1129.63976 466.839764,1130.23976 467.439764,1131.03976 C468.039764,1131.83976 468.523097,1132.85643 468.889764,1134.08976 C469.256431,1135.3231 469.439764,1136.80643 469.439764,1138.53976 C469.439764,1142.00643 468.839764,1144.88976 467.639764,1147.18976 C466.439764,1149.48976 464.906431,1151.40643 463.039764,1152.93976 L470.439764,1161.83976 C473.506431,1158.63976 475.756431,1154.95643 477.189764,1150.78976 C478.623097,1146.6231 479.339764,1142.30643 479.339764,1137.83976 C479.339764,1133.9731 478.823097,1130.6231 477.789764,1127.78976 C476.756431,1124.95643 475.406431,1122.6231 473.739764,1120.78976 C472.073097,1118.95643 470.223097,1117.58976 468.189764,1116.68976 C466.156431,1115.78976 464.173097,1115.33976 462.239764,1115.33976 Z M1953.63976,1110.33976 C1949.63976,1110.33976 1946.0231,1110.95643 1942.78976,1112.18976 C1939.55643,1113.4231 1936.78976,1115.05643 1934.48976,1117.08976 C1932.18976,1119.1231 1930.4231,1121.45643 1929.18976,1124.08976 C1927.95643,1126.7231 1927.33976,1129.43976 1927.33976,1132.23976 C1927.33976,1137.7731 1929.23976,1142.60643 1933.03976,1146.73976 L1908.23976,1146.73976 L1908.23976,1158.63976 L1978.83976,1158.63976 L1978.83976,1146.73976 L1973.63976,1146.73976 C1974.3731,1146.0731 1975.13976,1145.30643 1975.93976,1144.43976 C1976.73976,1143.5731 1977.4731,1142.55643 1978.13976,1141.38976 C1978.80643,1140.2231 1979.33976,1138.95643 1979.73976,1137.58976 C1980.13976,1136.2231 1980.33976,1134.70643 1980.33976,1133.03976 C1980.33976,1130.03976 1979.70643,1127.1731 1978.43976,1124.43976 C1977.1731,1121.70643 1975.38976,1119.28976 1973.08976,1117.18976 C1970.78976,1115.08976 1967.98976,1113.4231 1964.68976,1112.18976 C1961.38976,1110.95643 1957.70643,1110.33976 1953.63976,1110.33976 Z M1952.91553,1122.73109 L1953.43976,1122.73976 C1955.10643,1122.80643 1956.83976,1123.03976 1958.63976,1123.43976 C1960.43976,1123.83976 1962.10643,1124.50643 1963.63976,1125.43976 C1965.1731,1126.3731 1966.43976,1127.58976 1967.43976,1129.08976 C1968.43976,1130.58976 1968.93976,1132.43976 1968.93976,1134.63976 C1968.93976,1134.90643 1968.88976,1135.53976 1968.78976,1136.53976 C1968.68976,1137.53976 1968.33976,1138.65643 1967.73976,1139.88976 C1967.13976,1141.1231 1966.20643,1142.3231 1964.93976,1143.48976 C1963.6731,1144.65643 1961.83976,1145.53976 1959.43976,1146.13976 C1958.83976,1146.33976 1958.00643,1146.5231 1956.93976,1146.68976 C1955.8731,1146.85643 1954.5731,1146.93976 1953.03976,1146.93976 C1950.3731,1146.93976 1948.10643,1146.5731 1946.23976,1145.83976 C1944.3731,1145.10643 1942.83976,1144.1731 1941.63976,1143.03976 C1940.43976,1141.90643 1939.5731,1140.63976 1939.03976,1139.23976 C1938.50643,1137.83976 1938.23976,1136.4731 1938.23976,1135.13976 C1938.23976,1133.53976 1938.5731,1131.9731 1939.23976,1130.43976 C1939.90643,1128.90643 1940.8731,1127.55643 1942.13976,1126.38976 C1943.40643,1125.2231 1944.98976,1124.30643 1946.88976,1123.63976 C1948.78976,1122.9731 1950.9731,1122.6731 1953.43976,1122.73976 L1952.91553,1122.73109 Z M1211.83976,1097.43976 L1180.93976,1097.43976 C1178.0731,1097.43976 1175.3731,1097.6231 1172.83976,1097.98976 C1170.30643,1098.35643 1167.93976,1099.5731 1165.73976,1101.63976 C1164.20643,1102.9731 1162.9231,1104.80643 1161.88976,1107.13976 C1160.85643,1109.4731 1160.33976,1112.20643 1160.33976,1115.33976 C1160.33976,1118.80643 1160.95643,1121.83976 1162.18976,1124.43976 C1163.4231,1127.03976 1165.00643,1129.30643 1166.93976,1131.23976 L1141.23976,1131.23976 L1141.23976,1143.23976 L1211.83976,1143.23976 L1211.83976,1131.23976 L1185.43976,1131.23976 C1184.5731,1131.23976 1183.8731,1131.2231 1183.33976,1131.18976 C1182.80643,1131.15643 1182.35643,1131.1231 1181.98976,1131.08976 C1181.6231,1131.05643 1181.23976,1130.9731 1180.83976,1130.83976 C1180.10643,1130.63976 1179.2231,1130.25643 1178.18976,1129.68976 C1177.15643,1129.1231 1176.15643,1128.35643 1175.18976,1127.38976 C1174.2231,1126.4231 1173.40643,1125.2231 1172.73976,1123.78976 C1172.0731,1122.35643 1171.73976,1120.6731 1171.73976,1118.73976 C1171.73976,1117.0731 1171.9731,1115.70643 1172.43976,1114.63976 C1172.90643,1113.5731 1173.45643,1112.7231 1174.08976,1112.08976 C1174.7231,1111.45643 1175.33976,1110.98976 1175.93976,1110.68976 C1176.01476,1110.65226 1176.08716,1110.61607 1176.15695,1110.58117 L1176.71476,1110.30226 C1176.93143,1110.19393 1177.10643,1110.10643 1177.23976,1110.03976 C1177.63976,1109.90643 1178.0231,1109.78976 1178.38976,1109.68976 C1178.75643,1109.58976 1179.18976,1109.5231 1179.68976,1109.48976 C1180.18976,1109.45643 1180.80643,1109.4231 1181.53976,1109.38976 C1182.2731,1109.35643 1183.20643,1109.30643 1184.33976,1109.23976 L1211.83976,1109.23976 L1211.83976,1097.43976 Z M436.439764,1081.53976 L427.839764,1081.53976 L427.839764,1092.23976 L410.139764,1092.23976 L410.139764,1104.23976 L427.839764,1104.23976 L427.839764,1111.53976 L436.439764,1111.53976 L436.439764,1104.23976 L462.475734,1104.23925 C464.768421,1104.23483 466.673097,1104.20167 468.189764,1104.13976 C469.823097,1104.0731 471.139764,1103.83976 472.139764,1103.43976 C473.673097,1102.83976 474.856431,1101.93976 475.689764,1100.73976 C476.523097,1099.53976 477.123097,1098.2731 477.489764,1096.93976 C477.856431,1095.60643 478.073097,1094.30643 478.139764,1093.03976 C478.206431,1091.7731 478.239764,1090.83976 478.239764,1090.23976 C478.239764,1088.90643 478.189764,1087.5731 478.089764,1086.23976 C477.989764,1084.90643 477.773097,1083.33976 477.439764,1081.53976 L467.339764,1081.53976 C467.606431,1082.40643 467.773097,1083.2231 467.839764,1083.98976 C467.906431,1084.75643 467.939764,1085.60643 467.939764,1086.53976 C467.939764,1087.93976 467.773097,1089.03976 467.439764,1089.83976 C467.106431,1090.63976 466.573097,1091.20643 465.839764,1091.53976 C465.106431,1091.8731 464.173097,1092.0731 463.039764,1092.13976 C461.906431,1092.20643 460.573097,1092.23976 459.039764,1092.23976 L436.439764,1092.23976 L436.439764,1081.53976 Z M1978.83976,1056.73976 C1978.10643,1057.2731 1977.43976,1057.68976 1976.83976,1057.98976 C1976.23976,1058.28976 1975.65643,1058.50643 1975.08976,1058.63976 C1974.5231,1058.7731 1973.88976,1058.85643 1973.18976,1058.88976 C1972.48976,1058.9231 1971.6731,1058.93976 1970.73976,1058.93976 L1944.23976,1058.93976 C1942.90643,1058.93976 1941.60643,1058.9731 1940.33976,1059.03976 C1939.0731,1059.10643 1937.8731,1059.33976 1936.73976,1059.73976 C1935.60643,1060.13976 1934.5231,1060.73976 1933.48976,1061.53976 C1932.45643,1062.33976 1931.4731,1063.4731 1930.53976,1064.93976 C1929.20643,1067.13976 1928.33976,1069.58976 1927.93976,1072.28976 C1927.53976,1074.98976 1927.33976,1077.53976 1927.33976,1079.93976 C1927.33976,1080.73976 1927.38976,1082.00643 1927.48976,1083.73976 C1927.58976,1085.4731 1927.90643,1087.3231 1928.43976,1089.28976 C1928.9731,1091.25643 1929.8231,1093.20643 1930.98976,1095.13976 C1932.15643,1097.0731 1933.83976,1098.63976 1936.03976,1099.83976 C1937.50643,1100.63976 1938.80643,1101.13976 1939.93976,1101.33976 C1941.0731,1101.53976 1942.2731,1101.70643 1943.53976,1101.83976 L1944.23976,1089.53976 C1943.50643,1089.53976 1942.78976,1089.50643 1942.08976,1089.43976 C1941.38976,1089.3731 1940.63976,1089.00643 1939.83976,1088.33976 C1939.03976,1087.73976 1938.30643,1086.73976 1937.63976,1085.33976 C1936.9731,1083.93976 1936.63976,1081.9731 1936.63976,1079.43976 C1936.63976,1077.3731 1936.9231,1075.7731 1937.48976,1074.63976 C1938.05643,1073.50643 1938.73976,1072.65643 1939.53976,1072.08976 C1940.33976,1071.5231 1941.1731,1071.18976 1942.03976,1071.08976 C1942.90643,1070.98976 1943.63976,1070.93976 1944.23976,1070.93976 C1944.5731,1072.0731 1944.85643,1073.0231 1945.08976,1073.78976 C1945.3231,1074.55643 1945.5731,1075.45643 1945.83976,1076.48976 C1946.10643,1077.5231 1946.38976,1078.78976 1946.68976,1080.28976 C1946.98976,1081.78976 1947.40643,1083.83976 1947.93976,1086.43976 C1948.13976,1087.63976 1948.4231,1088.98976 1948.78976,1090.48976 C1949.15643,1091.98976 1949.68976,1093.4731 1950.38976,1094.93976 C1951.08976,1096.40643 1952.0231,1097.8231 1953.18976,1099.18976 C1954.35643,1100.55643 1955.83976,1101.6731 1957.63976,1102.53976 C1959.7731,1103.60643 1962.03976,1104.13976 1964.43976,1104.13976 C1966.5731,1104.13976 1968.58976,1103.7231 1970.48976,1102.88976 C1972.38976,1102.05643 1974.03976,1100.8731 1975.43976,1099.33976 C1976.83976,1097.80643 1977.95643,1095.90643 1978.78976,1093.63976 C1979.6231,1091.3731 1980.03976,1088.83976 1980.03976,1086.03976 C1980.03976,1082.5731 1979.4731,1079.5731 1978.33976,1077.03976 C1977.20643,1074.50643 1976.0731,1072.5731 1974.93976,1071.23976 C1975.2731,1071.23976 1975.85643,1071.20643 1976.68976,1071.13976 C1977.5231,1071.0731 1978.23976,1071.00643 1978.83976,1070.93976 L1978.83976,1056.73976 Z M1959.43976,1070.93976 C1960.1731,1070.93976 1960.9231,1070.9731 1961.68976,1071.03976 C1962.45643,1071.10643 1963.20643,1071.30643 1963.93976,1071.63976 C1965.4731,1072.30643 1966.8231,1073.65643 1967.98976,1075.68976 C1969.15643,1077.7231 1969.73976,1080.2731 1969.73976,1083.33976 C1969.73976,1085.73976 1969.23976,1087.68976 1968.23976,1089.18976 C1967.23976,1090.68976 1965.7731,1091.43976 1963.83976,1091.43976 C1962.50643,1091.43976 1961.4231,1091.1231 1960.58976,1090.48976 C1959.75643,1089.85643 1959.08976,1089.03976 1958.58976,1088.03976 C1958.08976,1087.03976 1957.7231,1085.95643 1957.48976,1084.78976 C1957.25643,1083.6231 1957.0731,1082.50643 1956.93976,1081.43976 C1956.4731,1078.70643 1956.00643,1076.5731 1955.53976,1075.03976 C1955.0731,1073.50643 1954.53976,1072.13976 1953.93976,1070.93976 L1959.43976,1070.93976 Z M477.839764,1030.63976 C477.106431,1031.1731 476.439764,1031.58976 475.839764,1031.88976 C475.239764,1032.18976 474.656431,1032.40643 474.089764,1032.53976 C473.523097,1032.6731 472.889764,1032.75643 472.189764,1032.78976 C471.489764,1032.8231 470.673097,1032.83976 469.739764,1032.83976 L443.239764,1032.83976 C441.906431,1032.83976 440.606431,1032.8731 439.339764,1032.93976 C438.073097,1033.00643 436.873097,1033.23976 435.739764,1033.63976 C434.606431,1034.03976 433.523097,1034.63976 432.489764,1035.43976 C431.456431,1036.23976 430.473097,1037.3731 429.539764,1038.83976 C428.206431,1041.03976 427.339764,1043.48976 426.939764,1046.18976 C426.539764,1048.88976 426.339764,1051.43976 426.339764,1053.83976 C426.339764,1054.63976 426.389764,1055.90643 426.489764,1057.63976 C426.589764,1059.3731 426.906431,1061.2231 427.439764,1063.18976 C427.973097,1065.15643 428.823097,1067.10643 429.989764,1069.03976 C431.156431,1070.9731 432.839764,1072.53976 435.039764,1073.73976 C436.506431,1074.53976 437.806431,1075.03976 438.939764,1075.23976 C440.073097,1075.43976 441.273097,1075.60643 442.539764,1075.73976 L443.239764,1063.43976 C442.506431,1063.43976 441.789764,1063.40643 441.089764,1063.33976 C440.389764,1063.2731 439.639764,1062.90643 438.839764,1062.23976 C438.039764,1061.63976 437.306431,1060.63976 436.639764,1059.23976 C435.973097,1057.83976 435.639764,1055.8731 435.639764,1053.33976 C435.639764,1051.2731 435.923097,1049.6731 436.489764,1048.53976 C437.056431,1047.40643 437.739764,1046.55643 438.539764,1045.98976 C439.339764,1045.4231 440.173097,1045.08976 441.039764,1044.98976 C441.906431,1044.88976 442.639764,1044.83976 443.239764,1044.83976 C443.573097,1045.9731 443.856431,1046.9231 444.089764,1047.68976 C444.323097,1048.45643 444.573097,1049.35643 444.839764,1050.38976 C445.106431,1051.4231 445.389764,1052.68976 445.689764,1054.18976 C445.989764,1055.68976 446.406431,1057.73976 446.939764,1060.33976 C447.139764,1061.53976 447.423097,1062.88976 447.789764,1064.38976 C448.156431,1065.88976 448.689764,1067.3731 449.389764,1068.83976 C450.089764,1070.30643 451.023097,1071.7231 452.189764,1073.08976 C453.356431,1074.45643 454.839764,1075.5731 456.639764,1076.43976 C458.773097,1077.50643 461.039764,1078.03976 463.439764,1078.03976 C465.573097,1078.03976 467.589764,1077.6231 469.489764,1076.78976 C471.389764,1075.95643 473.039764,1074.7731 474.439764,1073.23976 C475.839764,1071.70643 476.956431,1069.80643 477.789764,1067.53976 C478.623097,1065.2731 479.039764,1062.73976 479.039764,1059.93976 C479.039764,1056.4731 478.473097,1053.4731 477.339764,1050.93976 C476.206431,1048.40643 475.073097,1046.4731 473.939764,1045.13976 C474.273097,1045.13976 474.856431,1045.10643 475.689764,1045.03976 C476.523097,1044.9731 477.239764,1044.90643 477.839764,1044.83976 L477.839764,1030.63976 Z M458.439764,1044.83976 C459.173097,1044.83976 459.923097,1044.8731 460.689764,1044.93976 C461.456431,1045.00643 462.206431,1045.20643 462.939764,1045.53976 C464.473097,1046.20643 465.823097,1047.55643 466.989764,1049.58976 C468.156431,1051.6231 468.739764,1054.1731 468.739764,1057.23976 C468.739764,1059.63976 468.239764,1061.58976 467.239764,1063.08976 C466.239764,1064.58976 464.773097,1065.33976 462.839764,1065.33976 C461.506431,1065.33976 460.423097,1065.0231 459.589764,1064.38976 C458.756431,1063.75643 458.089764,1062.93976 457.589764,1061.93976 C457.089764,1060.93976 456.723097,1059.85643 456.489764,1058.68976 C456.256431,1057.5231 456.073097,1056.40643 455.939764,1055.33976 C455.473097,1052.60643 455.006431,1050.4731 454.539764,1048.93976 C454.073097,1047.40643 453.539764,1046.03976 452.939764,1044.83976 L458.439764,1044.83976 Z M1481,597 L1483.48052,597.020096 C1565.17914,598.344714 1631,664.985715 1631,747 L1631,897 L1630.9803,899.455767 C1629.682,980.340574 1564.36216,1045.66853 1483.48052,1046.9799 L1481,1047 L1481,597 Z M1940.03976,1018.53976 L1927.73976,1018.53976 C1927.6731,1021.33976 1927.93976,1023.6731 1928.53976,1025.53976 C1929.13976,1027.40643 1929.8731,1028.93976 1930.73976,1030.13976 C1931.60643,1031.33976 1932.5231,1032.2731 1933.48976,1032.93976 C1934.45643,1033.60643 1935.2731,1034.13976 1935.93976,1034.53976 L1928.83976,1034.53976 L1928.83976,1046.13976 L1978.83976,1046.13976 L1978.83976,1034.53976 L1960.33976,1034.53976 C1958.2731,1034.53976 1956.38976,1034.50643 1954.68976,1034.43976 C1952.98976,1034.3731 1951.43976,1034.1731 1950.03976,1033.83976 C1948.63976,1033.50643 1947.3731,1032.98976 1946.23976,1032.28976 C1945.10643,1031.58976 1944.03976,1030.60643 1943.03976,1029.33976 C1941.63976,1027.4731 1940.80643,1025.53976 1940.53976,1023.53976 C1940.2731,1021.53976 1940.10643,1019.8731 1940.03976,1018.53976 Z M468.839764,974.439764 L427.839764,974.439764 L427.839764,986.339764 L433.039764,986.339764 C432.573097,986.673097 431.973097,987.189764 431.239764,987.889764 C430.506431,988.589764 429.773097,989.489764 429.039764,990.589764 C428.306431,991.689764 427.673097,993.056431 427.139764,994.689764 C426.606431,996.323097 426.339764,998.273097 426.339764,1000.53976 C426.339764,1002.8731 426.756431,1005.33976 427.589764,1007.93976 C428.423097,1010.53976 429.806431,1012.9731 431.739764,1015.23976 C433.673097,1017.50643 436.206431,1019.3731 439.339764,1020.83976 C442.473097,1022.30643 446.373097,1023.03976 451.039764,1023.03976 C455.039764,1023.03976 458.523097,1022.45643 461.489764,1021.28976 C464.456431,1020.1231 466.939764,1018.55643 468.939764,1016.58976 C470.939764,1014.6231 472.439764,1012.3231 473.439764,1009.68976 C474.439764,1007.05643 474.939764,1004.2731 474.939764,1001.33976 C474.939764,997.739764 474.339764,994.673097 473.139764,992.139764 C471.939764,989.606431 470.739764,987.673097 469.539764,986.339764 C472.606431,986.339764 474.973097,986.406431 476.639764,986.539764 C478.306431,986.673097 479.773097,987.206431 481.039764,988.139764 C481.839764,988.673097 482.706431,989.689764 483.639764,991.189764 C484.573097,992.689764 485.039764,994.973097 485.039764,998.039764 C485.039764,999.839764 484.856431,1001.33976 484.489764,1002.53976 C484.123097,1003.73976 483.639764,1004.7231 483.039764,1005.48976 C482.439764,1006.25643 481.773097,1006.85643 481.039764,1007.28976 C480.306431,1007.7231 479.573097,1008.03976 478.839764,1008.23976 L478.839764,1021.43976 C480.839764,1021.03976 482.789764,1020.43976 484.689764,1019.63976 C486.589764,1018.83976 488.256431,1017.6231 489.689764,1015.98976 C491.123097,1014.35643 492.289764,1012.13976 493.189764,1009.33976 C494.089764,1006.53976 494.539764,1002.90643 494.539764,998.439764 C494.539764,992.573097 493.739764,987.989764 492.139764,984.689764 C490.539764,981.389764 488.806431,979.039764 486.939764,977.639764 C485.873097,976.839764 484.806431,976.239764 483.739764,975.839764 C482.673097,975.439764 481.439764,975.139764 480.039764,974.939764 C478.639764,974.739764 477.039764,974.606431 475.239764,974.539764 C473.439764,974.473097 471.306431,974.439764 468.839764,974.439764 Z M450.790724,986.036734 L451.239764,986.039764 C453.573097,986.039764 455.539764,986.389764 457.139764,987.089764 C458.739764,987.789764 460.039764,988.706431 461.039764,989.839764 C462.039764,990.973097 462.773097,992.273097 463.239764,993.739764 C463.706431,995.206431 463.939764,996.739764 463.939764,998.339764 C463.939764,1001.93976 462.839764,1004.90643 460.639764,1007.23976 C458.439764,1009.5731 455.139764,1010.73976 450.739764,1010.73976 C448.339764,1010.73976 446.273097,1010.38976 444.539764,1009.68976 C442.806431,1008.98976 441.389764,1008.05643 440.289764,1006.88976 C439.189764,1005.7231 438.373097,1004.40643 437.839764,1002.93976 C437.306431,1001.4731 437.039764,999.973097 437.039764,998.439764 C437.039764,994.373097 438.389764,991.273097 441.089764,989.139764 C443.789764,987.006431 447.173097,985.973097 451.239764,986.039764 L450.790724,986.036734 Z M466.639764,914.639764 L460.739764,924.839764 C461.273097,925.239764 461.923097,925.756431 462.689764,926.389764 C463.456431,927.023097 464.206431,927.839764 464.939764,928.839764 C465.673097,929.839764 466.306431,931.073097 466.839764,932.539764 C467.373097,934.006431 467.639764,935.773097 467.639764,937.839764 C467.639764,941.839764 466.573097,945.023097 464.439764,947.389764 C462.306431,949.756431 459.239764,951.306431 455.239764,952.039764 L455.239764,915.039764 C453.973097,915.039764 452.523097,915.123097 450.889764,915.289764 C449.256431,915.456431 447.556431,915.723097 445.789764,916.089764 C444.023097,916.456431 442.273097,916.973097 440.539764,917.639764 C438.806431,918.306431 437.206431,919.139764 435.739764,920.139764 C435.339764,920.406431 434.639764,920.956431 433.639764,921.789764 C432.639764,922.623097 431.589764,923.823097 430.489764,925.389764 C429.389764,926.956431 428.423097,928.939764 427.589764,931.339764 C426.756431,933.739764 426.339764,936.573097 426.339764,939.839764 C426.339764,943.373097 426.923097,946.656431 428.089764,949.689764 C429.256431,952.723097 430.956431,955.356431 433.189764,957.589764 C435.423097,959.823097 438.173097,961.573097 441.439764,962.839764 C444.706431,964.106431 448.439764,964.739764 452.639764,964.739764 C457.239764,964.739764 461.223097,964.023097 464.589764,962.589764 C467.956431,961.156431 470.723097,959.239764 472.889764,956.839764 C475.056431,954.439764 476.673097,951.689764 477.739764,948.589764 C478.806431,945.489764 479.339764,942.306431 479.339764,939.039764 C479.339764,933.906431 478.273097,929.339764 476.139764,925.339764 C474.006431,921.339764 470.839764,917.773097 466.639764,914.639764 Z M446.439764,928.239764 L446.439764,951.639764 C443.039764,950.906431 440.439764,949.489764 438.639764,947.389764 C436.839764,945.289764 435.939764,942.639764 435.939764,939.439764 C435.939764,936.773097 436.723097,934.373097 438.289764,932.239764 C439.856431,930.106431 442.573097,928.773097 446.439764,928.239764 Z M1557.73976,899.339764 L1552.33976,909.639764 C1553.33976,910.039764 1554.40643,910.523097 1555.53976,911.089764 C1556.6731,911.656431 1557.73976,912.406431 1558.73976,913.339764 C1559.73976,914.273097 1560.55643,915.423097 1561.18976,916.789764 C1561.8231,918.156431 1562.13976,919.773097 1562.13976,921.639764 C1562.13976,923.639764 1561.75643,925.406431 1560.98976,926.939764 C1560.2231,928.473097 1559.13976,929.789764 1557.73976,930.889764 C1556.33976,931.989764 1554.68976,932.823097 1552.78976,933.389764 C1550.88976,933.956431 1548.80643,934.239764 1546.53976,934.239764 C1541.53976,934.239764 1537.70643,933.039764 1535.03976,930.639764 C1532.3731,928.239764 1531.03976,925.306431 1531.03976,921.839764 C1531.03976,920.106431 1531.3231,918.589764 1531.88976,917.289764 C1532.45643,915.989764 1533.1731,914.873097 1534.03976,913.939764 C1534.90643,913.006431 1535.83976,912.256431 1536.83976,911.689764 C1537.83976,911.123097 1538.73976,910.739764 1539.53976,910.539764 L1534.53976,899.839764 C1533.0731,900.506431 1531.50643,901.406431 1529.83976,902.539764 C1528.1731,903.673097 1526.63976,905.123097 1525.23976,906.889764 C1523.83976,908.656431 1522.6731,910.739764 1521.73976,913.139764 C1520.80643,915.539764 1520.33976,918.306431 1520.33976,921.439764 C1520.33976,924.973097 1521.00643,928.273097 1522.33976,931.339764 C1523.6731,934.406431 1525.50643,937.073097 1527.83976,939.339764 C1530.1731,941.606431 1532.9731,943.389764 1536.23976,944.689764 C1539.50643,945.989764 1543.03976,946.639764 1546.83976,946.639764 C1550.7731,946.639764 1554.3731,946.006431 1557.63976,944.739764 C1560.90643,943.473097 1563.70643,941.723097 1566.03976,939.489764 C1568.3731,937.256431 1570.1731,934.623097 1571.43976,931.589764 C1572.70643,928.556431 1573.33976,925.306431 1573.33976,921.839764 C1573.33976,919.639764 1573.03976,917.423097 1572.43976,915.189764 C1571.83976,912.956431 1570.88976,910.823097 1569.58976,908.789764 C1568.28976,906.756431 1566.6731,904.923097 1564.73976,903.289764 C1562.80643,901.656431 1560.4731,900.339764 1557.73976,899.339764 Z M1546.63976,844.139764 C1542.50643,844.139764 1538.80643,844.839764 1535.53976,846.239764 C1532.2731,847.639764 1529.5231,849.523097 1527.28976,851.889764 C1525.05643,854.256431 1523.33976,857.006431 1522.13976,860.139764 C1520.93976,863.273097 1520.33976,866.573097 1520.33976,870.039764 C1520.33976,873.773097 1520.98976,877.206431 1522.28976,880.339764 C1523.58976,883.473097 1525.40643,886.156431 1527.73976,888.389764 C1530.0731,890.623097 1532.85643,892.373097 1536.08976,893.639764 C1539.3231,894.906431 1542.83976,895.539764 1546.63976,895.539764 C1550.43976,895.539764 1553.9731,894.923097 1557.23976,893.689764 C1560.50643,892.456431 1563.33976,890.689764 1565.73976,888.389764 C1568.13976,886.089764 1570.00643,883.356431 1571.33976,880.189764 C1572.6731,877.023097 1573.33976,873.473097 1573.33976,869.539764 C1573.33976,865.739764 1572.6731,862.289764 1571.33976,859.189764 C1570.00643,856.089764 1568.1731,853.423097 1565.83976,851.189764 C1563.50643,848.956431 1560.70643,847.223097 1557.43976,845.989764 C1554.1731,844.756431 1550.5731,844.139764 1546.63976,844.139764 Z M1546.43976,856.739764 C1548.50643,856.673097 1550.50643,856.889764 1552.43976,857.389764 C1554.3731,857.889764 1556.0731,858.673097 1557.53976,859.739764 C1559.00643,860.806431 1560.1731,862.156431 1561.03976,863.789764 C1561.90643,865.423097 1562.33976,867.339764 1562.33976,869.539764 C1562.33976,871.339764 1561.98976,873.056431 1561.28976,874.689764 C1560.58976,876.323097 1559.55643,877.756431 1558.18976,878.989764 C1556.8231,880.223097 1555.15643,881.206431 1553.18976,881.939764 C1551.2231,882.673097 1548.93976,883.039764 1546.33976,883.039764 C1544.0731,883.039764 1541.98976,882.723097 1540.08976,882.089764 C1538.18976,881.456431 1536.58976,880.556431 1535.28976,879.389764 C1533.98976,878.223097 1532.9731,876.856431 1532.23976,875.289764 C1531.50643,873.723097 1531.13976,872.006431 1531.13976,870.139764 C1531.13976,868.073097 1531.53976,866.206431 1532.33976,864.539764 C1533.13976,862.873097 1534.23976,861.473097 1535.63976,860.339764 C1537.03976,859.206431 1538.6731,858.339764 1540.53976,857.739764 C1542.40643,857.139764 1544.3731,856.806431 1546.43976,856.739764 Z M1571.83976,789.039764 L1521.83976,789.039764 L1521.83976,801.039764 L1543.03976,801.039764 C1544.7731,801.039764 1546.30643,801.073097 1547.63976,801.139764 C1548.9731,801.206431 1550.15643,801.306431 1551.18976,801.439764 C1552.2231,801.573097 1553.1731,801.756431 1554.03976,801.989764 C1554.90643,802.223097 1555.73976,802.573097 1556.53976,803.039764 C1557.8731,803.839764 1559.08976,805.023097 1560.18976,806.589764 C1561.28976,808.156431 1561.83976,810.206431 1561.83976,812.739764 C1561.83976,814.939764 1561.33976,816.873097 1560.33976,818.539764 C1559.33976,820.206431 1557.73976,821.373097 1555.53976,822.039764 C1554.8731,822.239764 1554.1231,822.356431 1553.28976,822.389764 C1552.45643,822.423097 1551.53976,822.439764 1550.53976,822.439764 L1521.83976,822.439764 L1521.83976,834.539764 L1550.73976,834.539764 C1552.60643,834.539764 1554.3231,834.523097 1555.88976,834.489764 C1557.45643,834.456431 1558.88976,834.339764 1560.18976,834.139764 C1561.48976,833.939764 1562.7231,833.606431 1563.88976,833.139764 C1565.05643,832.673097 1566.1731,832.006431 1567.23976,831.139764 C1567.83976,830.673097 1568.4731,830.073097 1569.13976,829.339764 C1569.80643,828.606431 1570.4231,827.689764 1570.98976,826.589764 C1571.55643,825.489764 1572.03976,824.173097 1572.43976,822.639764 C1572.83976,821.106431 1573.03976,819.306431 1573.03976,817.239764 C1573.03976,814.973097 1572.80643,812.939764 1572.33976,811.139764 C1571.8731,809.339764 1571.30643,807.789764 1570.63976,806.489764 C1569.9731,805.189764 1569.28976,804.089764 1568.58976,803.189764 C1567.88976,802.289764 1567.2731,801.573097 1566.73976,801.039764 L1571.83976,801.039764 L1571.83976,789.039764 Z M1557.73976,732.739764 L1552.33976,743.039764 C1553.33976,743.439764 1554.40643,743.923097 1555.53976,744.489764 C1556.6731,745.056431 1557.73976,745.806431 1558.73976,746.739764 C1559.73976,747.673097 1560.55643,748.823097 1561.18976,750.189764 C1561.8231,751.556431 1562.13976,753.173097 1562.13976,755.039764 C1562.13976,757.039764 1561.75643,758.806431 1560.98976,760.339764 C1560.2231,761.873097 1559.13976,763.189764 1557.73976,764.289764 C1556.33976,765.389764 1554.68976,766.223097 1552.78976,766.789764 C1550.88976,767.356431 1548.80643,767.639764 1546.53976,767.639764 C1541.53976,767.639764 1537.70643,766.439764 1535.03976,764.039764 C1532.3731,761.639764 1531.03976,758.706431 1531.03976,755.239764 C1531.03976,753.506431 1531.3231,751.989764 1531.88976,750.689764 C1532.45643,749.389764 1533.1731,748.273097 1534.03976,747.339764 C1534.90643,746.406431 1535.83976,745.656431 1536.83976,745.089764 C1537.83976,744.523097 1538.73976,744.139764 1539.53976,743.939764 L1534.53976,733.239764 C1533.0731,733.906431 1531.50643,734.806431 1529.83976,735.939764 C1528.1731,737.073097 1526.63976,738.523097 1525.23976,740.289764 C1523.83976,742.056431 1522.6731,744.139764 1521.73976,746.539764 C1520.80643,748.939764 1520.33976,751.706431 1520.33976,754.839764 C1520.33976,758.373097 1521.00643,761.673097 1522.33976,764.739764 C1523.6731,767.806431 1525.50643,770.473097 1527.83976,772.739764 C1530.1731,775.006431 1532.9731,776.789764 1536.23976,778.089764 C1539.50643,779.389764 1543.03976,780.039764 1546.83976,780.039764 C1550.7731,780.039764 1554.3731,779.406431 1557.63976,778.139764 C1560.90643,776.873097 1563.70643,775.123097 1566.03976,772.889764 C1568.3731,770.656431 1570.1731,768.023097 1571.43976,764.989764 C1572.70643,761.956431 1573.33976,758.706431 1573.33976,755.239764 C1573.33976,753.039764 1573.03976,750.823097 1572.43976,748.589764 C1571.83976,746.356431 1570.88976,744.223097 1569.58976,742.189764 C1568.28976,740.156431 1566.6731,738.323097 1564.73976,736.689764 C1562.80643,735.056431 1560.4731,733.739764 1557.73976,732.739764 Z M1571.83976,680.439764 L1540.93976,680.439764 C1538.0731,680.439764 1535.3731,680.623097 1532.83976,680.989764 C1530.30643,681.356431 1527.93976,682.573097 1525.73976,684.639764 C1524.20643,685.973097 1522.9231,687.806431 1521.88976,690.139764 C1520.85643,692.473097 1520.33976,695.206431 1520.33976,698.339764 C1520.33976,701.806431 1520.95643,704.839764 1522.18976,707.439764 C1523.4231,710.039764 1525.00643,712.306431 1526.93976,714.239764 L1501.23976,714.239764 L1501.23976,726.239764 L1571.83976,726.239764 L1571.83976,714.239764 L1545.43976,714.239764 C1544.5731,714.239764 1543.8731,714.223097 1543.33976,714.189764 C1542.80643,714.156431 1542.35643,714.123097 1541.98976,714.089764 C1541.6231,714.056431 1541.23976,713.973097 1540.83976,713.839764 C1540.10643,713.639764 1539.2231,713.256431 1538.18976,712.689764 C1537.15643,712.123097 1536.15643,711.356431 1535.18976,710.389764 C1534.2231,709.423097 1533.40643,708.223097 1532.73976,706.789764 C1532.0731,705.356431 1531.73976,703.673097 1531.73976,701.739764 C1531.73976,700.073097 1531.9731,698.706431 1532.43976,697.639764 C1532.90643,696.573097 1533.45643,695.723097 1534.08976,695.089764 C1534.7231,694.456431 1535.33976,693.989764 1535.93976,693.689764 C1536.01476,693.652264 1536.08716,693.616066 1536.15695,693.58117 L1536.71476,693.302264 C1536.93143,693.193931 1537.10643,693.106431 1537.23976,693.039764 C1537.63976,692.906431 1538.0231,692.789764 1538.38976,692.689764 C1538.75643,692.589764 1539.18976,692.523097 1539.68976,692.489764 C1540.18976,692.456431 1540.80643,692.423097 1541.53976,692.389764 C1542.2731,692.356431 1543.20643,692.306431 1544.33976,692.239764 L1571.83976,692.239764 L1571.83976,680.439764 Z M1115,185 L1117.48052,185.020096 C1199.17914,186.344714 1265,252.985715 1265,335 L1265,485 L1264.9803,487.455767 C1263.682,568.340574 1198.36216,633.668532 1117.48052,634.979904 L1115,635 L1115,185 Z M721.601209,245.192354 L834.807646,343.601209 L836.648114,345.227202 C896.840886,399.272255 903.290852,491.42876 851.217432,553.331241 L849.605228,555.2165 L509.985917,259.989937 L511.628454,258.131046 C566.227273,197.341344 659.704242,191.386142 721.601209,245.192354 Z M1197.73976,487.339764 L1192.33976,497.639764 C1193.33976,498.039764 1194.40643,498.523097 1195.53976,499.089764 C1196.6731,499.656431 1197.73976,500.406431 1198.73976,501.339764 C1199.73976,502.273097 1200.55643,503.423097 1201.18976,504.789764 C1201.8231,506.156431 1202.13976,507.773097 1202.13976,509.639764 C1202.13976,511.639764 1201.75643,513.406431 1200.98976,514.939764 C1200.2231,516.473097 1199.13976,517.789764 1197.73976,518.889764 C1196.33976,519.989764 1194.68976,520.823097 1192.78976,521.389764 C1190.88976,521.956431 1188.80643,522.239764 1186.53976,522.239764 C1181.53976,522.239764 1177.70643,521.039764 1175.03976,518.639764 C1172.3731,516.239764 1171.03976,513.306431 1171.03976,509.839764 C1171.03976,508.106431 1171.3231,506.589764 1171.88976,505.289764 C1172.45643,503.989764 1173.1731,502.873097 1174.03976,501.939764 C1174.90643,501.006431 1175.83976,500.256431 1176.83976,499.689764 C1177.83976,499.123097 1178.73976,498.739764 1179.53976,498.539764 L1174.53976,487.839764 C1173.0731,488.506431 1171.50643,489.406431 1169.83976,490.539764 C1168.1731,491.673097 1166.63976,493.123097 1165.23976,494.889764 C1163.83976,496.656431 1162.6731,498.739764 1161.73976,501.139764 C1160.80643,503.539764 1160.33976,506.306431 1160.33976,509.439764 C1160.33976,512.973097 1161.00643,516.273097 1162.33976,519.339764 C1163.6731,522.406431 1165.50643,525.073097 1167.83976,527.339764 C1170.1731,529.606431 1172.9731,531.389764 1176.23976,532.689764 C1179.50643,533.989764 1183.03976,534.639764 1186.83976,534.639764 C1190.7731,534.639764 1194.3731,534.006431 1197.63976,532.739764 C1200.90643,531.473097 1203.70643,529.723097 1206.03976,527.489764 C1208.3731,525.256431 1210.1731,522.623097 1211.43976,519.589764 C1212.70643,516.556431 1213.33976,513.306431 1213.33976,509.839764 C1213.33976,507.639764 1213.03976,505.423097 1212.43976,503.189764 C1211.83976,500.956431 1210.88976,498.823097 1209.58976,496.789764 C1208.28976,494.756431 1206.6731,492.923097 1204.73976,491.289764 C1202.80643,489.656431 1200.4731,488.339764 1197.73976,487.339764 Z M1186.63976,432.139764 C1182.50643,432.139764 1178.80643,432.839764 1175.53976,434.239764 C1172.2731,435.639764 1169.5231,437.523097 1167.28976,439.889764 C1165.05643,442.256431 1163.33976,445.006431 1162.13976,448.139764 C1160.93976,451.273097 1160.33976,454.573097 1160.33976,458.039764 C1160.33976,461.773097 1160.98976,465.206431 1162.28976,468.339764 C1163.58976,471.473097 1165.40643,474.156431 1167.73976,476.389764 C1170.0731,478.623097 1172.85643,480.373097 1176.08976,481.639764 C1179.3231,482.906431 1182.83976,483.539764 1186.63976,483.539764 C1190.43976,483.539764 1193.9731,482.923097 1197.23976,481.689764 C1200.50643,480.456431 1203.33976,478.689764 1205.73976,476.389764 C1208.13976,474.089764 1210.00643,471.356431 1211.33976,468.189764 C1212.6731,465.023097 1213.33976,461.473097 1213.33976,457.539764 C1213.33976,453.739764 1212.6731,450.289764 1211.33976,447.189764 C1210.00643,444.089764 1208.1731,441.423097 1205.83976,439.189764 C1203.50643,436.956431 1200.70643,435.223097 1197.43976,433.989764 C1194.1731,432.756431 1190.5731,432.139764 1186.63976,432.139764 Z M1186.43976,444.739764 C1188.50643,444.673097 1190.50643,444.889764 1192.43976,445.389764 C1194.3731,445.889764 1196.0731,446.673097 1197.53976,447.739764 C1199.00643,448.806431 1200.1731,450.156431 1201.03976,451.789764 C1201.90643,453.423097 1202.33976,455.339764 1202.33976,457.539764 C1202.33976,459.339764 1201.98976,461.056431 1201.28976,462.689764 C1200.58976,464.323097 1199.55643,465.756431 1198.18976,466.989764 C1196.8231,468.223097 1195.15643,469.206431 1193.18976,469.939764 C1191.2231,470.673097 1188.93976,471.039764 1186.33976,471.039764 C1184.0731,471.039764 1181.98976,470.723097 1180.08976,470.089764 C1178.18976,469.456431 1176.58976,468.556431 1175.28976,467.389764 C1173.98976,466.223097 1172.9731,464.856431 1172.23976,463.289764 C1171.50643,461.723097 1171.13976,460.006431 1171.13976,458.139764 C1171.13976,456.073097 1171.53976,454.206431 1172.33976,452.539764 C1173.13976,450.873097 1174.23976,449.473097 1175.63976,448.339764 C1177.03976,447.206431 1178.6731,446.339764 1180.53976,445.739764 C1182.40643,445.139764 1184.3731,444.806431 1186.43976,444.739764 Z M817.300761,408.285088 C814.913308,407.932224 812.469045,407.949563 809.967972,408.337105 C807.466899,408.724647 804.942394,409.621825 802.394456,411.028639 L806.625246,421.861478 C807.583189,421.369192 808.647762,420.881264 809.818964,420.397693 C810.990166,419.914122 812.255995,419.601143 813.616449,419.458755 C814.976904,419.316368 816.380602,419.454489 817.827542,419.873121 C819.274483,420.291752 820.702348,421.113389 822.11114,422.338033 C823.620559,423.650151 824.70239,425.098494 825.356633,426.683062 C826.010875,428.267629 826.293846,429.949043 826.205544,431.727301 C826.117241,433.505559 825.663669,435.297546 824.844825,437.103261 C824.025982,438.908976 822.873027,440.667171 821.38596,442.377846 C818.105664,446.151394 814.68512,448.257176 811.124326,448.695194 C807.563532,449.133211 804.474972,448.21505 801.858646,445.940712 C800.550483,444.803543 799.591723,443.594686 798.982367,442.314141 C798.373012,441.033595 798.000428,439.760121 797.864617,438.493717 C797.728806,437.227314 797.775096,436.030874 798.003486,434.904398 C798.231876,433.777921 798.533024,432.847193 798.906929,432.112214 L787.551242,428.86593 C787.092161,430.41021 786.743574,432.183042 786.50548,434.184425 C786.267386,436.185808 786.355758,438.294315 786.770595,440.509946 C787.185433,442.725577 787.992342,444.972861 789.191323,447.251798 C790.390305,449.530735 792.172174,451.69803 794.53693,453.753681 C797.203571,456.071757 800.131485,457.733612 803.320673,458.739247 C806.509861,459.744882 809.725195,460.110738 812.966675,459.836816 C816.208154,459.562894 819.391018,458.619679 822.515267,457.007171 C825.639515,455.394664 828.448152,453.154461 830.941176,450.286565 C833.521675,447.318041 835.405505,444.185582 836.592665,440.889189 C837.779826,437.592797 838.29605,434.331507 838.141336,431.105319 C837.986622,427.879132 837.180127,424.793032 835.721849,421.847021 C834.263571,418.90101 832.226269,416.290835 829.609943,414.016497 C827.949582,412.573167 826.079824,411.345316 824.000671,410.332943 C821.921517,409.320571 819.688214,408.637952 817.300761,408.285088 Z M781.015269,374.423818 C777.800924,373.396315 774.585591,373.030458 771.369268,373.326249 C768.152946,373.622039 765.007817,374.598057 761.933882,376.254302 C758.859948,377.910547 756.032731,380.222932 753.452232,383.191456 C750.740522,386.310923 748.8414,389.56259 747.754867,392.946457 C746.668334,396.330324 746.285542,399.641353 746.606489,402.879544 C746.927437,406.117735 747.876653,409.217483 749.454139,412.178786 C751.031625,415.140089 753.128531,417.757909 755.744858,420.032247 C758.56244,422.481534 761.580048,424.243442 764.797682,425.317972 C768.015315,426.392501 771.232293,426.78187 774.448616,426.48608 C777.664938,426.190289 780.811711,425.237784 783.888934,423.628564 C786.966157,422.019345 789.75128,419.780787 792.244305,416.912891 C794.737329,414.044994 796.59,410.973784 797.802318,407.69926 C799.014635,404.424736 799.540149,401.127354 799.378859,397.807116 C799.217568,394.486877 798.379339,391.284858 796.864171,388.201058 C795.349002,385.117258 793.107156,382.285109 790.138632,379.70461 C787.270735,377.211586 784.229615,375.451322 781.015269,374.423818 Z M1211.83976,377.039764 L1161.83976,377.039764 L1161.83976,389.039764 L1183.03976,389.039764 C1184.7731,389.039764 1186.30643,389.073097 1187.63976,389.139764 C1188.9731,389.206431 1190.15643,389.306431 1191.18976,389.439764 C1192.2231,389.573097 1193.1731,389.756431 1194.03976,389.989764 C1194.90643,390.223097 1195.73976,390.573097 1196.53976,391.039764 C1197.8731,391.839764 1199.08976,393.023097 1200.18976,394.589764 C1201.28976,396.156431 1201.83976,398.206431 1201.83976,400.739764 C1201.83976,402.939764 1201.33976,404.873097 1200.33976,406.539764 C1199.33976,408.206431 1197.73976,409.373097 1195.53976,410.039764 C1194.8731,410.239764 1194.1231,410.356431 1193.28976,410.389764 C1192.45643,410.423097 1191.53976,410.439764 1190.53976,410.439764 L1161.83976,410.439764 L1161.83976,422.539764 L1190.73976,422.539764 C1192.60643,422.539764 1194.3231,422.523097 1195.88976,422.489764 C1197.45643,422.456431 1198.88976,422.339764 1200.18976,422.139764 C1201.48976,421.939764 1202.7231,421.606431 1203.88976,421.139764 C1205.05643,420.673097 1206.1731,420.006431 1207.23976,419.139764 C1207.83976,418.673097 1208.4731,418.073097 1209.13976,417.339764 C1209.80643,416.606431 1210.4231,415.689764 1210.98976,414.589764 C1211.55643,413.489764 1212.03976,412.173097 1212.43976,410.639764 C1212.83976,409.106431 1213.03976,407.306431 1213.03976,405.239764 C1213.03976,402.973097 1212.80643,400.939764 1212.33976,399.139764 C1211.8731,397.339764 1211.30643,395.789764 1210.63976,394.489764 C1209.9731,393.189764 1209.28976,392.089764 1208.58976,391.189764 C1207.88976,390.289764 1207.2731,389.573097 1206.73976,389.039764 L1211.83976,389.039764 L1211.83976,377.039764 Z M772.376745,385.199643 C774.143989,384.792532 775.928249,384.797717 777.729526,385.215198 C779.530802,385.63268 781.261621,386.563086 782.921982,388.006415 C784.28046,389.187322 785.346424,390.577705 786.119875,392.177564 C786.893326,393.777424 787.297148,395.497642 787.331343,397.338218 C787.365537,399.178794 787.014237,401.081768 786.277441,403.04714 C785.540645,405.012512 784.319371,406.976321 782.613617,408.938566 C781.12655,410.649241 779.520769,412.0138 777.796274,413.032244 C776.071779,414.050689 774.342846,414.667771 772.609475,414.883491 C770.876104,415.099211 769.177674,414.969885 767.514186,414.495513 C765.850697,414.021141 764.314558,413.171633 762.905766,411.94699 C761.346033,410.591134 760.199666,409.064607 759.466664,407.367408 C758.733661,405.670208 758.398733,403.921545 758.461878,402.121418 C758.525023,400.321291 758.942505,398.520014 759.714322,396.717588 C760.48614,394.915161 761.52482,393.212213 762.830361,391.608742 C764.135903,390.005272 765.611541,388.637999 767.257277,387.506923 C768.903012,386.375847 770.609502,385.606754 772.376745,385.199643 Z M728.400422,328.023923 L695.59747,365.759402 L704.653985,373.63211 L718.562437,357.632267 C719.699606,356.324104 720.73072,355.188751 721.655779,354.226209 C722.580839,353.263666 723.432646,352.436199 724.211202,351.743807 C724.989757,351.051415 725.751377,350.454719 726.49606,349.953718 C727.240744,349.452716 728.051608,349.053412 728.928653,348.755806 C730.407166,348.274373 732.098444,348.13248 734.002487,348.330125 C735.906531,348.52777 737.814518,349.457601 739.726449,351.119617 C741.38681,352.562947 742.517885,354.208683 743.119676,356.056824 C743.721466,357.904965 743.552266,359.877903 742.612076,361.975637 C742.325645,362.609988 741.92165,363.252561 741.400091,363.903354 C740.878533,364.554147 740.289724,365.256899 739.633665,366.011608 L720.80477,387.671773 L729.936756,395.610087 L748.896862,373.798981 C750.121506,372.390189 751.235162,371.08367 752.237831,369.879423 C753.2405,368.675176 754.092801,367.516886 754.794736,366.404551 C755.496671,365.292217 756.054241,364.142722 756.467445,362.956067 C756.88065,361.769412 757.110109,360.48928 757.155824,359.115672 C757.197261,358.356685 757.15994,357.485067 757.043859,356.500817 C756.927778,355.516568 756.64053,354.449776 756.182116,353.300442 C755.723703,352.151109 755.047097,350.922521 754.152299,349.61468 C753.257501,348.306839 752.030236,346.974991 750.470503,345.619136 C748.759828,344.132069 747.072171,342.974181 745.407533,342.145472 C743.742895,341.316764 742.201328,340.727541 740.782833,340.377804 C739.364338,340.028067 738.085851,339.82212 736.947371,339.759964 C735.808891,339.697808 734.863446,339.693036 734.111036,339.74565 L737.456937,335.896631 L728.400422,328.023923 Z M1197.73976,320.739764 L1192.33976,331.039764 C1193.33976,331.439764 1194.40643,331.923097 1195.53976,332.489764 C1196.6731,333.056431 1197.73976,333.806431 1198.73976,334.739764 C1199.73976,335.673097 1200.55643,336.823097 1201.18976,338.189764 C1201.8231,339.556431 1202.13976,341.173097 1202.13976,343.039764 C1202.13976,345.039764 1201.75643,346.806431 1200.98976,348.339764 C1200.2231,349.873097 1199.13976,351.189764 1197.73976,352.289764 C1196.33976,353.389764 1194.68976,354.223097 1192.78976,354.789764 C1190.88976,355.356431 1188.80643,355.639764 1186.53976,355.639764 C1181.53976,355.639764 1177.70643,354.439764 1175.03976,352.039764 C1172.3731,349.639764 1171.03976,346.706431 1171.03976,343.239764 C1171.03976,341.506431 1171.3231,339.989764 1171.88976,338.689764 C1172.45643,337.389764 1173.1731,336.273097 1174.03976,335.339764 C1174.90643,334.406431 1175.83976,333.656431 1176.83976,333.089764 C1177.83976,332.523097 1178.73976,332.139764 1179.53976,331.939764 L1174.53976,321.239764 C1173.0731,321.906431 1171.50643,322.806431 1169.83976,323.939764 C1168.1731,325.073097 1166.63976,326.523097 1165.23976,328.289764 C1163.83976,330.056431 1162.6731,332.139764 1161.73976,334.539764 C1160.80643,336.939764 1160.33976,339.706431 1160.33976,342.839764 C1160.33976,346.373097 1161.00643,349.673097 1162.33976,352.739764 C1163.6731,355.806431 1165.50643,358.473097 1167.83976,360.739764 C1170.1731,363.006431 1172.9731,364.789764 1176.23976,366.089764 C1179.50643,367.389764 1183.03976,368.039764 1186.83976,368.039764 C1190.7731,368.039764 1194.3731,367.406431 1197.63976,366.139764 C1200.90643,364.873097 1203.70643,363.123097 1206.03976,360.889764 C1208.3731,358.656431 1210.1731,356.023097 1211.43976,352.989764 C1212.70643,349.956431 1213.33976,346.706431 1213.33976,343.239764 C1213.33976,341.039764 1213.03976,338.823097 1212.43976,336.589764 C1211.83976,334.356431 1210.88976,332.223097 1209.58976,330.189764 C1208.28976,328.156431 1206.6731,326.323097 1204.73976,324.689764 C1202.80643,323.056431 1200.4731,321.739764 1197.73976,320.739764 Z M691.566145,298.985654 C689.178692,298.632789 686.734429,298.650128 684.233356,299.03767 C681.732283,299.425213 679.207778,300.32239 676.65984,301.729204 L680.89063,312.562044 C681.848573,312.069758 682.913146,311.58183 684.084348,311.098259 C685.25555,310.614688 686.521379,310.301709 687.881833,310.159321 C689.242288,310.016933 690.645986,310.155055 692.092926,310.573686 C693.539867,310.992318 694.967732,311.813955 696.376524,313.038599 C697.885943,314.350717 698.967774,315.79906 699.622016,317.383627 C700.276259,318.968195 700.55923,320.649608 700.470927,322.427867 C700.382625,324.206125 699.929053,325.998112 699.110209,327.803827 C698.291366,329.609542 697.138411,331.367737 695.651343,333.078412 C692.371048,336.85196 688.950504,338.957742 685.38971,339.395759 C681.828916,339.833777 678.740356,338.915616 676.12403,336.641278 C674.815866,335.504109 673.857107,334.295252 673.247751,333.014707 C672.638396,331.734161 672.265812,330.460687 672.130001,329.194283 C671.99419,327.92788 672.04048,326.73144 672.26887,325.604964 C672.49726,324.478487 672.798408,323.547759 673.172313,322.81278 L661.816626,319.566496 C661.357545,321.110776 661.008958,322.883608 660.770864,324.88499 C660.53277,326.886373 660.621142,328.99488 661.035979,331.210511 C661.450817,333.426142 662.257726,335.673427 663.456707,337.952364 C664.655689,340.231301 666.437558,342.398596 668.802314,344.454247 C671.468955,346.772322 674.396869,348.434177 677.586057,349.439812 C680.775245,350.445447 683.990579,350.811304 687.232058,350.537382 C690.473538,350.26346 693.656402,349.320245 696.780651,347.707737 C699.904899,346.095229 702.713536,343.855027 705.20656,340.987131 C707.787059,338.018606 709.670889,334.886148 710.858049,331.589755 C712.04521,328.293362 712.561433,325.032072 712.40672,321.805885 C712.252006,318.579697 711.445511,315.493598 709.987233,312.547587 C708.528955,309.601576 706.491653,306.991401 703.875327,304.717063 C702.214966,303.273733 700.345208,302.045882 698.266055,301.033509 C696.186901,300.021136 693.953598,299.338518 691.566145,298.985654 Z M646.438961,256.775912 L626.166738,280.096438 C624.286035,282.259939 622.653039,284.417932 621.26775,286.570418 C619.88246,288.722904 619.248017,291.307255 619.36442,294.323472 C619.364743,296.355438 619.906435,298.526757 620.989496,300.837428 C622.072557,303.148099 623.796466,305.33126 626.161223,307.386912 C628.77755,309.66125 631.471405,311.185891 634.242789,311.960836 C637.014174,312.735781 639.763609,313.027892 642.491095,312.837167 L625.630378,332.233204 L634.686893,340.105912 L681.00466,286.823416 L671.948145,278.950707 L656.858788,296.309028 C655.940305,297.365621 655.196771,298.220958 654.628187,298.87504 C654.059602,299.529122 653.587783,300.046484 653.212728,300.427127 C652.837672,300.80777 652.517289,301.125521 652.251577,301.380379 C651.985865,301.635238 651.671483,301.869871 651.308432,302.084281 C650.67638,302.506522 649.807556,302.921693 648.701959,303.329793 C647.596363,303.737893 646.361693,303.989624 644.99795,304.084986 C643.634207,304.180348 642.192774,304.009424 640.673651,303.572212 C639.154528,303.135 637.665414,302.282204 636.206308,301.013823 C634.948459,299.920392 634.070103,298.847679 633.571241,297.795685 C633.072378,296.743691 632.791707,295.77095 632.729229,294.877463 C632.66675,293.983977 632.719122,293.212412 632.886344,292.562768 C633.053567,291.913125 633.174339,291.443938 633.24866,291.155207 C633.410455,290.765849 633.573895,290.400003 633.738979,290.057671 C633.904063,289.715338 634.138042,289.34456 634.440914,288.945336 C634.743787,288.546113 635.123199,288.05884 635.579152,287.483518 C636.035105,286.908195 636.609692,286.170997 637.302911,285.271922 L655.344535,264.517409 L646.438961,256.775912 Z M163.45,1927.45 L213.45,1943.85 L213.45,1956.75 L163.45,1972.95 L163.45,1960.55 L197.85,1950.15 L163.45,1939.95 L163.45,1927.45 Z M333.45,1937.95 L333.45,1950.25 L294.85,1950.25 C293.25,1950.25 291.916667,1950.28333 290.85,1950.35 C289.783333,1950.41667 288.933333,1950.61667 288.3,1950.95 C287.666667,1951.28333 287.216667,1951.81667 286.95,1952.55 C286.683333,1953.28333 286.55,1954.35 286.55,1955.75 L286.55,1966.75 L278.85,1966.75 L278.85,1965.45 C278.85,1963.85 278.766667,1962.16667 278.6,1960.4 C278.433333,1958.63333 277.95,1956.95 277.15,1955.35 C276.35,1953.75 275.083333,1952.28333 273.35,1950.95 C271.616667,1949.61667 269.15,1948.61667 265.95,1947.95 L265.95,1937.95 L333.45,1937.95 Z M213.45,1876.35 L213.45,1890.55 C212.85,1890.61667 212.133333,1890.68333 211.3,1890.75 C210.466667,1890.81667 209.883333,1890.85 209.55,1890.85 C210.683333,1892.18333 211.816667,1894.11667 212.95,1896.65 C214.083333,1899.18333 214.65,1902.18333 214.65,1905.65 C214.65,1908.45 214.233333,1910.98333 213.4,1913.25 C212.566667,1915.51667 211.45,1917.41667 210.05,1918.95 C208.65,1920.48333 207,1921.66667 205.1,1922.5 C203.2,1923.33333 201.183333,1923.75 199.05,1923.75 C196.65,1923.75 194.383333,1923.21667 192.25,1922.15 C190.45,1921.28333 188.966667,1920.16667 187.8,1918.8 C186.633333,1917.43333 185.7,1916.01667 185,1914.55 C184.3,1913.08333 183.766667,1911.6 183.4,1910.1 C183.033333,1908.6 182.75,1907.25 182.55,1906.05 C182.016667,1903.45 181.6,1901.4 181.3,1899.9 C181,1898.4 180.716667,1897.13333 180.45,1896.1 C180.183333,1895.06667 179.933333,1894.16667 179.7,1893.4 C179.466667,1892.63333 179.183333,1891.68333 178.85,1890.55 C178.25,1890.55 177.516667,1890.6 176.65,1890.7 C175.783333,1890.8 174.95,1891.13333 174.15,1891.7 C173.35,1892.26667 172.666667,1893.11667 172.1,1894.25 C171.533333,1895.38333 171.25,1896.98333 171.25,1899.05 C171.25,1901.58333 171.583333,1903.55 172.25,1904.95 C172.916667,1906.35 173.65,1907.35 174.45,1907.95 C175.25,1908.61667 176,1908.98333 176.7,1909.05 C177.4,1909.11667 178.116667,1909.15 178.85,1909.15 L178.15,1921.45 C176.883333,1921.31667 175.683333,1921.15 174.55,1920.95 C173.416667,1920.75 172.116667,1920.25 170.65,1919.45 C168.45,1918.25 166.766667,1916.68333 165.6,1914.75 C164.433333,1912.81667 163.583333,1910.86667 163.05,1908.9 C162.516667,1906.93333 162.2,1905.08333 162.1,1903.35 C162,1901.61667 161.95,1900.35 161.95,1899.55 C161.95,1897.15 162.15,1894.6 162.55,1891.9 C162.95,1889.2 163.816667,1886.75 165.15,1884.55 C166.083333,1883.08333 167.066667,1881.95 168.1,1881.15 C169.133333,1880.35 170.216667,1879.75 171.35,1879.35 C172.483333,1878.95 173.683333,1878.71667 174.95,1878.65 C176.216667,1878.58333 177.516667,1878.55 178.85,1878.55 L205.35,1878.55 C206.283333,1878.55 207.1,1878.53333 207.8,1878.5 C208.5,1878.46667 209.133333,1878.38333 209.7,1878.25 C210.266667,1878.11667 210.85,1877.9 211.45,1877.6 C212.05,1877.3 212.716667,1876.88333 213.45,1876.35 Z M333.45,1866.45 L333.45,1912.35 L323.75,1912.35 C322.283333,1910.21667 320.7,1908.1 319,1906 C317.3,1903.9 315.633333,1901.93333 314,1900.1 C312.366667,1898.26667 310.816667,1896.58333 309.35,1895.05 C307.883333,1893.51667 306.65,1892.25 305.65,1891.25 C304.716667,1890.31667 303.6,1889.28333 302.3,1888.15 C301,1887.01667 299.55,1885.95 297.95,1884.95 C296.35,1883.95 294.583333,1883.1 292.65,1882.4 C290.716667,1881.7 288.65,1881.35 286.45,1881.35 C285.183333,1881.35 283.933333,1881.51667 282.7,1881.85 C281.466667,1882.18333 280.383333,1882.71667 279.45,1883.45 C278.516667,1884.18333 277.766667,1885.1 277.2,1886.2 C276.633333,1887.3 276.35,1888.65 276.35,1890.25 C276.35,1892.71667 276.933333,1894.6 278.1,1895.9 C279.266667,1897.2 280.683333,1898.15 282.35,1898.75 C284.016667,1899.35 285.733333,1899.66667 287.5,1899.7 C289.266667,1899.73333 290.75,1899.75 291.95,1899.75 L290.85,1912.35 C286.116667,1912.35 282.2,1911.73333 279.1,1910.5 C276,1909.26667 273.683333,1907.98333 272.15,1906.65 C270.016667,1904.78333 268.266667,1902.33333 266.9,1899.3 C265.533333,1896.26667 264.85,1892.91667 264.85,1889.25 C264.85,1886.05 265.35,1883.11667 266.35,1880.45 C267.35,1877.78333 268.766667,1875.5 270.6,1873.6 C272.433333,1871.7 274.65,1870.21667 277.25,1869.15 C279.85,1868.08333 282.75,1867.55 285.95,1867.55 C288.683333,1867.55 291.233333,1867.93333 293.6,1868.7 C295.966667,1869.46667 298.183333,1870.5 300.25,1871.8 C302.316667,1873.1 304.266667,1874.6 306.1,1876.3 C307.933333,1878 309.683333,1879.78333 311.35,1881.65 C311.683333,1882.05 312.35,1882.83333 313.35,1884 C314.35,1885.16667 315.45,1886.48333 316.65,1887.95 L320.25,1892.35 C321.45,1893.81667 322.383333,1895.01667 323.05,1895.95 L323.05,1866.45 L333.45,1866.45 Z M194.05,1890.55 L188.55,1890.55 C189.15,1891.75 189.683333,1893.11667 190.15,1894.65 C190.616667,1896.18333 191.083333,1898.31667 191.55,1901.05 C191.683333,1902.11667 191.866667,1903.23333 192.1,1904.4 C192.333333,1905.56667 192.7,1906.65 193.2,1907.65 C193.7,1908.65 194.366667,1909.46667 195.2,1910.1 C196.033333,1910.73333 197.116667,1911.05 198.45,1911.05 C200.383333,1911.05 201.85,1910.3 202.85,1908.8 C203.85,1907.3 204.35,1905.35 204.35,1902.95 C204.35,1899.88333 203.766667,1897.33333 202.6,1895.3 C201.433333,1893.26667 200.083333,1891.91667 198.55,1891.25 C197.816667,1890.91667 197.066667,1890.71667 196.3,1890.65 C195.533333,1890.58333 194.783333,1890.55 194.05,1890.55 Z M174.65,1838.15 C174.716667,1839.48333 174.883333,1841.15 175.15,1843.15 C175.416667,1845.15 176.25,1847.08333 177.65,1848.95 C178.65,1850.21667 179.716667,1851.2 180.85,1851.9 C181.983333,1852.6 183.25,1853.11667 184.65,1853.45 C186.05,1853.78333 187.6,1853.98333 189.3,1854.05 C191,1854.11667 192.883333,1854.15 194.95,1854.15 L213.45,1854.15 L213.45,1865.75 L163.45,1865.75 L163.45,1854.15 L170.55,1854.15 C169.883333,1853.75 169.066667,1853.21667 168.1,1852.55 C167.133333,1851.88333 166.216667,1850.95 165.35,1849.75 C164.483333,1848.55 163.75,1847.01667 163.15,1845.15 C162.55,1843.28333 162.283333,1840.95 162.35,1838.15 L174.65,1838.15 Z M313.45,1809.45 C316.383333,1809.45 319.116667,1809.98333 321.65,1811.05 C324.183333,1812.11667 326.4,1813.66667 328.3,1815.7 C330.2,1817.73333 331.683333,1820.25 332.75,1823.25 C333.816667,1826.25 334.35,1829.68333 334.35,1833.55 C334.35,1836.95 333.866667,1840.15 332.9,1843.15 C331.933333,1846.15 330.55,1848.61667 328.75,1850.55 C327.35,1852.08333 325.233333,1853.56667 322.4,1855 C319.566667,1856.43333 315.883333,1857.15 311.35,1857.15 L311.35,1843.85 C311.683333,1843.91667 312.016667,1843.95 312.35,1843.95 L313.45,1843.95 C316.316667,1843.95 318.7,1843.03333 320.6,1841.2 C322.5,1839.36667 323.45,1836.75 323.45,1833.35 C323.45,1831.48333 323.133333,1829.88333 322.5,1828.55 C321.866667,1827.21667 321.05,1826.11667 320.05,1825.25 C319.05,1824.38333 317.916667,1823.76667 316.65,1823.4 C315.383333,1823.03333 314.083333,1822.85 312.75,1822.85 C310.95,1822.85 309.3,1823.23333 307.8,1824 C306.3,1824.76667 305.116667,1825.91667 304.25,1827.45 C303.316667,1829.05 302.85,1831.45 302.85,1834.65 L302.95,1837.95 L292.45,1837.95 C292.516667,1835.88333 292.55,1834.55 292.55,1833.95 L292.55,1832.45 C292.55,1832.05 292.483333,1831.41667 292.35,1830.55 C292.216667,1829.68333 291.883333,1828.78333 291.35,1827.85 C290.816667,1826.91667 290.033333,1826.1 289,1825.4 C287.966667,1824.7 286.483333,1824.35 284.55,1824.35 C282.216667,1824.35 280.2,1825.08333 278.5,1826.55 C276.8,1828.01667 275.95,1830.15 275.95,1832.95 C275.95,1835.15 276.433333,1836.88333 277.4,1838.15 C278.366667,1839.41667 279.483333,1840.38333 280.75,1841.05 C282.016667,1841.71667 283.266667,1842.13333 284.5,1842.3 C285.733333,1842.46667 286.65,1842.55 287.25,1842.55 L284.45,1855.75 C283.65,1855.61667 282.683333,1855.41667 281.55,1855.15 C280.416667,1854.88333 279.2,1854.48333 277.9,1853.95 C276.6,1853.41667 275.3,1852.7 274,1851.8 C272.7,1850.9 271.45,1849.75 270.25,1848.35 C268.516667,1846.35 267.183333,1843.95 266.25,1841.15 C265.316667,1838.35 264.85,1835.48333 264.85,1832.55 C264.85,1830.75 265.1,1828.61667 265.6,1826.15 C266.1,1823.68333 267.033333,1821.33333 268.4,1819.1 C269.766667,1816.86667 271.6,1814.96667 273.9,1813.4 C276.2,1811.83333 279.15,1811.05 282.75,1811.05 C284.35,1811.05 285.75,1811.21667 286.95,1811.55 C288.15,1811.88333 289.183333,1812.25 290.05,1812.65 C290.916667,1813.05 291.6,1813.45 292.1,1813.85 C292.6,1814.25 292.95,1814.55 293.15,1814.75 C294.55,1816.01667 295.5,1817.3 296,1818.6 C296.5,1819.9 296.916667,1821.11667 297.25,1822.25 C297.516667,1820.91667 298,1819.5 298.7,1818 C299.4,1816.5 300.4,1815.11667 301.7,1813.85 C303,1812.58333 304.616667,1811.53333 306.55,1810.7 C308.483333,1809.86667 310.783333,1809.45 313.45,1809.45 Z M155.65,1818.35 L155.65,1830.25 L143.55,1830.25 L143.55,1818.35 L155.65,1818.35 Z M213.45,1818.35 L213.45,1830.25 L163.45,1830.25 L163.45,1818.35 L213.45,1818.35 Z M202.25,1758.25 C206.45,1761.38333 209.616667,1764.95 211.75,1768.95 C213.883333,1772.95 214.95,1777.51667 214.95,1782.65 C214.95,1785.91667 214.416667,1789.1 213.35,1792.2 C212.283333,1795.3 210.666667,1798.05 208.5,1800.45 C206.333333,1802.85 203.566667,1804.76667 200.2,1806.2 C196.833333,1807.63333 192.85,1808.35 188.25,1808.35 C184.05,1808.35 180.316667,1807.71667 177.05,1806.45 C173.783333,1805.18333 171.033333,1803.43333 168.8,1801.2 C166.566667,1798.96667 164.866667,1796.33333 163.7,1793.3 C162.533333,1790.26667 161.95,1786.98333 161.95,1783.45 C161.95,1780.18333 162.366667,1777.35 163.2,1774.95 C164.033333,1772.55 165,1770.56667 166.1,1769 C167.2,1767.43333 168.25,1766.23333 169.25,1765.4 C170.25,1764.56667 170.95,1764.01667 171.35,1763.75 C172.816667,1762.75 174.416667,1761.91667 176.15,1761.25 C177.883333,1760.58333 179.633333,1760.06667 181.4,1759.7 C183.166667,1759.33333 184.866667,1759.06667 186.5,1758.9 C188.133333,1758.73333 189.583333,1758.65 190.85,1758.65 L190.85,1795.65 C194.85,1794.91667 197.916667,1793.36667 200.05,1791 C202.183333,1788.63333 203.25,1785.45 203.25,1781.45 C203.25,1779.38333 202.983333,1777.61667 202.45,1776.15 C201.916667,1774.68333 201.283333,1773.45 200.55,1772.45 C199.816667,1771.45 199.066667,1770.63333 198.3,1770 C197.533333,1769.36667 196.883333,1768.85 196.35,1768.45 L202.25,1758.25 Z M182.05,1771.85 C178.183333,1772.38333 175.466667,1773.71667 173.9,1775.85 C172.333333,1777.98333 171.55,1780.38333 171.55,1783.05 C171.55,1786.25 172.45,1788.9 174.25,1791 C176.05,1793.1 178.65,1794.51667 182.05,1795.25 L182.05,1771.85 Z M172.05,1725.15 L172.05,1735.85 L194.65,1735.85 C196.183333,1735.85 197.516667,1735.81667 198.65,1735.75 C199.783333,1735.68333 200.716667,1735.48333 201.45,1735.15 C202.183333,1734.81667 202.716667,1734.25 203.05,1733.45 C203.383333,1732.65 203.55,1731.55 203.55,1730.15 C203.55,1729.21667 203.516667,1728.36667 203.45,1727.6 C203.383333,1726.83333 203.216667,1726.01667 202.95,1725.15 L213.05,1725.15 C213.383333,1726.95 213.6,1728.51667 213.7,1729.85 C213.8,1731.18333 213.85,1732.51667 213.85,1733.85 C213.85,1734.45 213.816667,1735.38333 213.75,1736.65 C213.683333,1737.91667 213.466667,1739.21667 213.1,1740.55 C212.733333,1741.88333 212.133333,1743.15 211.3,1744.35 C210.466667,1745.55 209.283333,1746.45 207.75,1747.05 C206.75,1747.45 205.433333,1747.68333 203.8,1747.75 C202.166667,1747.81667 200.083333,1747.85 197.55,1747.85 L172.05,1747.85 L172.05,1755.15 L163.45,1755.15 L163.45,1747.85 L145.75,1747.85 L145.75,1735.85 L163.45,1735.85 L163.45,1725.15 L172.05,1725.15 Z M163.45,1677.25 L207.05,1689.95 L216.45,1692.75 C219.05,1693.61667 221.266667,1694.51667 223.1,1695.45 C224.933333,1696.38333 226.4,1697.48333 227.5,1698.75 C228.6,1700.01667 229.4,1701.48333 229.9,1703.15 C230.4,1704.81667 230.65,1706.81667 230.65,1709.15 C230.65,1711.08333 230.583333,1712.58333 230.45,1713.65 C230.316667,1714.71667 230.183333,1715.61667 230.05,1716.35 L219.55,1716.35 C219.75,1715.28333 219.85,1714.21667 219.85,1713.15 C219.85,1712.68333 219.8,1711.9 219.7,1710.8 C219.6,1709.7 219.216667,1708.68333 218.55,1707.75 C218.083333,1707.01667 217.416667,1706.36667 216.55,1705.8 C215.683333,1705.23333 214.983333,1704.95 214.45,1704.95 L163.45,1723.05 L163.45,1710.15 L200.75,1699.05 L163.45,1689.55 L163.45,1677.25 Z M174.65,1642.35 C174.716667,1643.68333 174.883333,1645.35 175.15,1647.35 C175.416667,1649.35 176.25,1651.28333 177.65,1653.15 C178.65,1654.41667 179.716667,1655.4 180.85,1656.1 C181.983333,1656.8 183.25,1657.31667 184.65,1657.65 C186.05,1657.98333 187.6,1658.18333 189.3,1658.25 C191,1658.31667 192.883333,1658.35 194.95,1658.35 L213.45,1658.35 L213.45,1669.95 L163.45,1669.95 L163.45,1658.35 L170.55,1658.35 C169.883333,1657.95 169.066667,1657.41667 168.1,1656.75 C167.133333,1656.08333 166.216667,1655.15 165.35,1653.95 C164.483333,1652.75 163.75,1651.21667 163.15,1649.35 C162.55,1647.48333 162.283333,1645.15 162.35,1642.35 L174.65,1642.35 Z M188.25,1586.05 C192.183333,1586.05 195.783333,1586.66667 199.05,1587.9 C202.316667,1589.13333 205.116667,1590.86667 207.45,1593.1 C209.783333,1595.33333 211.616667,1598 212.95,1601.1 C214.283333,1604.2 214.95,1607.65 214.95,1611.45 C214.95,1615.38333 214.283333,1618.93333 212.95,1622.1 C211.616667,1625.26667 209.75,1628 207.35,1630.3 C204.95,1632.6 202.116667,1634.36667 198.85,1635.6 C195.583333,1636.83333 192.05,1637.45 188.25,1637.45 C184.45,1637.45 180.933333,1636.81667 177.7,1635.55 C174.466667,1634.28333 171.683333,1632.53333 169.35,1630.3 C167.016667,1628.06667 165.2,1625.38333 163.9,1622.25 C162.6,1619.11667 161.95,1615.68333 161.95,1611.95 C161.95,1608.48333 162.55,1605.18333 163.75,1602.05 C164.95,1598.91667 166.666667,1596.16667 168.9,1593.8 C171.133333,1591.43333 173.883333,1589.55 177.15,1588.15 C180.416667,1586.75 184.116667,1586.05 188.25,1586.05 Z M188.05,1598.65 C185.983333,1598.71667 184.016667,1599.05 182.15,1599.65 C180.283333,1600.25 178.65,1601.11667 177.25,1602.25 C175.85,1603.38333 174.75,1604.78333 173.95,1606.45 C173.15,1608.11667 172.75,1609.98333 172.75,1612.05 C172.75,1613.91667 173.116667,1615.63333 173.85,1617.2 C174.583333,1618.76667 175.6,1620.13333 176.9,1621.3 C178.2,1622.46667 179.8,1623.36667 181.7,1624 C183.6,1624.63333 185.683333,1624.95 187.95,1624.95 C190.55,1624.95 192.833333,1624.58333 194.8,1623.85 C196.766667,1623.11667 198.433333,1622.13333 199.8,1620.9 C201.166667,1619.66667 202.2,1618.23333 202.9,1616.6 C203.6,1614.96667 203.95,1613.25 203.95,1611.45 C203.95,1609.25 203.516667,1607.33333 202.65,1605.7 C201.783333,1604.06667 200.616667,1602.71667 199.15,1601.65 C197.683333,1600.58333 195.983333,1599.8 194.05,1599.3 C192.116667,1598.8 190.116667,1598.58333 188.05,1598.65 Z M188.25,1527.75 C192.183333,1527.75 195.783333,1528.36667 199.05,1529.6 C202.316667,1530.83333 205.116667,1532.56667 207.45,1534.8 C209.783333,1537.03333 211.616667,1539.7 212.95,1542.8 C214.283333,1545.9 214.95,1549.35 214.95,1553.15 C214.95,1557.08333 214.283333,1560.63333 212.95,1563.8 C211.616667,1566.96667 209.75,1569.7 207.35,1572 C204.95,1574.3 202.116667,1576.06667 198.85,1577.3 C195.583333,1578.53333 192.05,1579.15 188.25,1579.15 C184.45,1579.15 180.933333,1578.51667 177.7,1577.25 C174.466667,1575.98333 171.683333,1574.23333 169.35,1572 C167.016667,1569.76667 165.2,1567.08333 163.9,1563.95 C162.6,1560.81667 161.95,1557.38333 161.95,1553.65 C161.95,1550.18333 162.55,1546.88333 163.75,1543.75 C164.95,1540.61667 166.666667,1537.86667 168.9,1535.5 C171.133333,1533.13333 173.883333,1531.25 177.15,1529.85 C180.416667,1528.45 184.116667,1527.75 188.25,1527.75 Z M188.05,1540.35 C185.983333,1540.41667 184.016667,1540.75 182.15,1541.35 C180.283333,1541.95 178.65,1542.81667 177.25,1543.95 C175.85,1545.08333 174.75,1546.48333 173.95,1548.15 C173.15,1549.81667 172.75,1551.68333 172.75,1553.75 C172.75,1555.61667 173.116667,1557.33333 173.85,1558.9 C174.583333,1560.46667 175.6,1561.83333 176.9,1563 C178.2,1564.16667 179.8,1565.06667 181.7,1565.7 C183.6,1566.33333 185.683333,1566.65 187.95,1566.65 C190.55,1566.65 192.833333,1566.28333 194.8,1565.55 C196.766667,1564.81667 198.433333,1563.83333 199.8,1562.6 C201.166667,1561.36667 202.2,1559.93333 202.9,1558.3 C203.6,1556.66667 203.95,1554.95 203.95,1553.15 C203.95,1550.95 203.516667,1549.03333 202.65,1547.4 C201.783333,1545.76667 200.616667,1544.41667 199.15,1543.35 C197.683333,1542.28333 195.983333,1541.5 194.05,1541 C192.116667,1540.5 190.116667,1540.28333 188.05,1540.35 Z M213.45,1443.25 L213.45,1455.15 L185.85,1455.15 C184.65,1455.15 183.333333,1455.16667 181.9,1455.2 C180.466667,1455.23333 179.1,1455.48333 177.8,1455.95 C176.5,1456.41667 175.416667,1457.23333 174.55,1458.4 C173.683333,1459.56667 173.25,1461.28333 173.25,1463.55 C173.25,1465.48333 173.7,1467.18333 174.6,1468.65 C175.5,1470.11667 176.616667,1471.25 177.95,1472.05 C179.816667,1473.18333 181.75,1473.9 183.75,1474.2 C185.75,1474.5 187.816667,1474.65 189.95,1474.65 L213.45,1474.65 L213.45,1486.55 L185.55,1486.55 C183.75,1486.55 182.416667,1486.56667 181.55,1486.6 C180.683333,1486.63333 179.883333,1486.75 179.15,1486.95 C177.483333,1487.41667 176.083333,1488.28333 174.95,1489.55 C173.816667,1490.81667 173.25,1492.51667 173.25,1494.65 C173.25,1496.45 173.75,1498.16667 174.75,1499.8 C175.75,1501.43333 177.183333,1502.78333 179.05,1503.85 C180.983333,1504.91667 183.1,1505.55 185.4,1505.75 C187.7,1505.95 190.083333,1506.05 192.55,1506.05 L213.45,1506.05 L213.45,1517.95 L163.45,1517.95 L163.45,1506.05 L169.05,1506.05 C167.783333,1505.05 166.7,1503.88333 165.8,1502.55 C164.9,1501.21667 164.166667,1499.83333 163.6,1498.4 C163.033333,1496.96667 162.616667,1495.55 162.35,1494.15 C162.083333,1492.75 161.95,1491.45 161.95,1490.25 C161.95,1489.05 162.066667,1487.81667 162.3,1486.55 C162.533333,1485.28333 162.95,1484.03333 163.55,1482.8 C164.15,1481.56667 164.95,1480.38333 165.95,1479.25 C166.95,1478.11667 168.183333,1477.15 169.65,1476.35 C168.983333,1475.88333 168.2,1475.18333 167.3,1474.25 C166.4,1473.31667 165.55,1472.2 164.75,1470.9 C163.95,1469.6 163.283333,1468.06667 162.75,1466.3 C162.216667,1464.53333 161.95,1462.55 161.95,1460.35 C161.95,1457.81667 162.333333,1455.41667 163.1,1453.15 C163.866667,1450.88333 165.183333,1448.88333 167.05,1447.15 C169.25,1445.15 171.633333,1444 174.2,1443.7 C176.766667,1443.4 179.35,1443.25 181.95,1443.25 L213.45,1443.25 Z M1211.83976,268.439764 L1211.83976,280.239764 L1184.33976,280.239764 C1183.20643,280.306431 1182.2731,280.356431 1181.53976,280.389764 C1180.80643,280.423097 1180.18976,280.456431 1179.68976,280.489764 C1179.18976,280.523097 1178.75643,280.589764 1178.38976,280.689764 C1178.0231,280.789764 1177.63976,280.906431 1177.23976,281.039764 C1177.10643,281.106431 1176.93143,281.193931 1176.71476,281.302264 L1176.05031,281.63449 L1175.93976,281.689764 C1175.33976,281.989764 1174.7231,282.456431 1174.08976,283.089764 C1173.45643,283.723097 1172.90643,284.573097 1172.43976,285.639764 C1171.9731,286.706431 1171.73976,288.073097 1171.73976,289.739764 C1171.73976,291.673097 1172.0731,293.356431 1172.73976,294.789764 C1173.40643,296.223097 1174.2231,297.423097 1175.18976,298.389764 C1176.15643,299.356431 1177.15643,300.123097 1178.18976,300.689764 C1179.2231,301.256431 1180.10643,301.639764 1180.83976,301.839764 C1181.23976,301.973097 1181.6231,302.056431 1181.98976,302.089764 C1182.35643,302.123097 1182.80643,302.156431 1183.33976,302.189764 C1183.8731,302.223097 1184.5731,302.239764 1185.43976,302.239764 L1211.83976,302.239764 L1211.83976,314.239764 L1141.23976,314.239764 L1141.23976,302.239764 L1166.93976,302.239764 C1165.00643,300.306431 1163.4231,298.039764 1162.18976,295.439764 C1160.95643,292.839764 1160.33976,289.806431 1160.33976,286.339764 C1160.33976,283.206431 1160.85643,280.473097 1161.88976,278.139764 C1162.9231,275.806431 1164.20643,273.973097 1165.73976,272.639764 C1167.93976,270.573097 1170.30643,269.356431 1172.83976,268.989764 C1175.3731,268.623097 1178.0731,268.439764 1180.93976,268.439764 L1211.83976,268.439764 Z" id="Rectangle" fill="#C60000" fill-rule="nonzero" transform="translate(1050.000000, 1050.000000) rotate(90.000000) translate(-1050.000000, -1050.000000) "></path>
    </g>
</svg>