<?xml version="1.0" standalone="no"?>
<!DOCTYPE svg PUBLIC "-//W3C//DTD SVG 20010904//EN"
 "http://www.w3.org/TR/2001/REC-SVG-20010904/DTD/svg10.dtd">
<svg version="1.0" xmlns="http://www.w3.org/2000/svg"
 width="700.000000pt" height="700.000000pt" viewBox="0 0 700.000000 700.000000"
 preserveAspectRatio="xMidYMid meet">
<metadata>
Created by potrace 1.14, written by Peter Selinger 2001-2017
</metadata>
<g transform="translate(0.000000,700.000000) scale(0.100000,-0.100000)"
fill="#000000" stroke="none">
<path d="M2280 6818 c-173 -99 -333 -191 -355 -203 -22 -13 -101 -58 -175
-100 -74 -43 -155 -89 -180 -103 -126 -71 -675 -385 -678 -387 -1 -1 95 -168
214 -371 119 -203 226 -387 239 -409 12 -22 107 -184 210 -360 232 -396 236
-404 227 -408 -4 -1 -406 -3 -894 -2 l-888 1 0 -976 0 -976 891 1 c490 0 892
-2 894 -5 2 -3 -37 -75 -87 -160 -50 -85 -200 -342 -333 -570 -133 -228 -252
-431 -264 -450 -11 -19 -29 -51 -40 -70 -10 -19 -53 -93 -95 -164 -42 -71 -75
-130 -74 -131 2 -1 126 -72 223 -127 11 -7 349 -200 750 -429 714 -409 730
-417 745 -397 8 11 27 42 41 67 33 58 850 1454 853 1458 0 1 42 -69 92 -155
50 -86 217 -373 371 -637 154 -264 290 -496 301 -515 119 -208 138 -237 152
-231 13 5 210 117 250 141 8 5 110 63 225 128 116 66 352 200 525 299 173 99
335 191 360 205 25 14 104 59 175 100 72 41 138 79 147 84 15 8 -3 44 -142
279 -88 149 -163 277 -167 285 -4 8 -31 55 -60 104 -29 49 -53 90 -53 93 0 2
-16 29 -35 59 -19 30 -35 57 -35 60 0 3 -15 28 -33 57 -18 29 -36 59 -40 67
-4 8 -17 31 -29 52 -13 20 -50 83 -83 140 -33 56 -65 112 -72 123 -7 11 -15
27 -20 35 -4 8 -31 55 -60 103 -29 48 -53 91 -53 95 0 4 400 7 890 7 l890 -1
0 976 0 976 -890 0 c-787 -1 -890 1 -885 14 8 20 162 287 186 322 11 15 19 30
19 33 0 3 20 38 44 78 24 40 92 156 151 257 125 214 153 262 225 385 29 50 67
115 85 145 17 30 58 100 90 155 32 55 65 112 74 127 10 18 12 30 6 37 -9 8
-420 246 -530 306 -64 35 -116 65 -176 101 -31 19 -60 34 -63 34 -4 0 -35 17
-69 39 -34 21 -87 52 -117 68 -30 17 -106 60 -169 97 -62 36 -115 66 -116 66
-1 0 -69 39 -151 86 -82 47 -174 100 -204 117 -30 16 -64 36 -76 44 -17 11
-23 11 -31 1 -10 -12 -73 -119 -118 -199 -11 -20 -85 -147 -165 -283 -80 -135
-153 -261 -164 -279 -53 -93 -346 -595 -394 -676 l-55 -93 -19 23 c-10 13 -24
35 -31 49 -8 14 -77 134 -155 267 -78 133 -150 257 -161 275 -39 69 -252 434
-261 448 -5 8 -43 74 -85 145 -42 72 -80 137 -85 145 -5 8 -33 54 -61 103 -28
48 -52 87 -53 87 0 -1 -143 -82 -316 -182z"/>
</g>
</svg>
